<svg xmlns="http://www.w3.org/2000/svg" version="1.1" xmlns:xlink="http://www.w3.org/1999/xlink" xmlns:svgjs="http://svgjs.dev/svgjs" width="2000" height="590" viewBox="0 0 2000 590"><g transform="matrix(1,0,0,1,-1.2120992521373637,0.2714061225372575)"><svg viewBox="0 0 396 117" data-background-color="#00ffef" preserveAspectRatio="xMidYMid meet" height="590" width="2000" xmlns="http://www.w3.org/2000/svg" xmlns:xlink="http://www.w3.org/1999/xlink"><g id="tight-bounds" transform="matrix(1,0,0,1,0.23999565192320915,-0.053821214130266526)"><svg viewBox="0 0 395.52 117.10764242826055" height="117.10764242826055" width="395.52"><g><svg viewBox="0 0 554.2869780116147 164.1162045500235" height="117.10764242826055" width="395.52"><g><rect width="5.364308766366567" height="164.1162045500235" x="139.3599761395765" y="0" fill="#000000" opacity="1" stroke-width="0" stroke="transparent" fill-opacity="1" class="rect-o-0" data-fill-palette-color="primary" rx="1%" id="o-0" data-palette-color="#010c80"></rect></g><g transform="matrix(1,0,0,1,158.76697801161473,0.40824926504980397)"><svg viewBox="0 0 395.52 163.2997060199239" height="163.2997060199239" width="395.52"><g id="textblocktransform"><svg viewBox="0 0 395.52 163.2997060199239" height="163.2997060199239" width="395.52" id="textblock"><g><svg viewBox="0 0 395.52 129.04249950248754" height="129.04249950248754" width="395.52"><g transform="matrix(1,0,0,1,0,0)"><svg width="395.52" viewBox="2.0799999237060547 -34.939998626708984 240.17999267578125 73.8499984741211" height="129.04249950248754" data-palette-color="#010c80"><svg></svg><svg></svg><g class="undefined-text-0" data-fill-palette-color="primary" id="text-0"><path xmlns="http://www.w3.org/2000/svg" d="M26.49-34.94v0c3.647 0 7.107 0.643 10.38 1.93v0l0.9 0.37-1.93 5.27-0.93-0.32c-3.153-1.053-6.01-1.58-8.57-1.58v0c-2.013 0-3.88 0.33-5.6 0.99-1.72 0.66-3.143 1.543-4.27 2.65-1.133 1.107-2.013 2.373-2.64 3.8-0.627 1.433-0.94 2.933-0.94 4.5v0c0 1.607 0.337 3.14 1.01 4.6 0.68 1.453 1.627 2.73 2.84 3.83 1.207 1.1 2.73 1.97 4.57 2.61 1.84 0.647 3.85 0.97 6.03 0.97v0c2.673 0 5.343-0.473 8.01-1.42v0l0.9-0.32 2.01 4.89-0.91 0.39c-3.527 1.513-7.253 2.27-11.18 2.27v0c-3.04 0-5.803-0.463-8.29-1.39-2.48-0.927-4.527-2.2-6.14-3.82-1.607-1.62-2.847-3.507-3.72-5.66-0.873-2.147-1.31-4.457-1.31-6.93v0c0-2.507 0.45-4.833 1.35-6.98 0.893-2.147 2.17-4.01 3.83-5.59 1.66-1.58 3.743-2.817 6.25-3.71 2.507-0.9 5.29-1.35 8.35-1.35zM71.22-20.73v-13.96h6.15v34.69h-6.15v-15.06h-18.56v15.06h-6.15v-34.69h6.15v13.96zM85.67 0l13.74-34.69h6.74l13.72 34.69h-6.32l-3.88-9.08h-14.16l-3.88 9.08zM97.63-14.72h9.89l-4.93-12.87zM154.22-24.76v0c0 1.107-0.133 2.163-0.4 3.17-0.267 1-0.69 1.963-1.27 2.89-0.58 0.927-1.37 1.757-2.37 2.49-1 0.733-2.183 1.303-3.55 1.71v0l10.47 14.5h-8l-9.72-13.45h-5.88v13.45h-6.16v-34.69h14.77c0.733 0 1.407 0.02 2.02 0.06 0.607 0.04 1.347 0.137 2.22 0.29 0.873 0.153 1.647 0.36 2.32 0.62 0.673 0.26 1.373 0.643 2.1 1.15 0.727 0.507 1.33 1.097 1.81 1.77 0.48 0.673 0.873 1.53 1.18 2.57 0.307 1.033 0.46 2.19 0.46 3.47zM140.31-29.05h-6.81v9.93h5.66c0.98 0 1.843-0.03 2.59-0.09 0.747-0.067 1.52-0.203 2.32-0.41 0.793-0.2 1.447-0.48 1.96-0.84 0.513-0.36 0.937-0.857 1.27-1.49 0.333-0.633 0.5-1.38 0.5-2.24v0c0-3.24-2.497-4.86-7.49-4.86zM166.43 0v-34.69h6.15v29.05h17.58v5.64zM198.83 0v-34.69h6.15v34.69zM242.26 0h-24.34v-34.69h24.34v5.66h-18.16v8.33h16.82v5.66h-16.82v9.38h18.16z" fill="#000000" fill-rule="nonzero" stroke="none" stroke-width="1" stroke-linecap="butt" stroke-linejoin="miter" stroke-miterlimit="10" stroke-dasharray="" stroke-dashoffset="0" font-family="none" font-weight="none" font-size="none" text-anchor="none" style="mix-blend-mode: normal" data-fill-palette-color="primary" opacity="1"></path><path xmlns="http://www.w3.org/2000/svg" d="M2.08 9.39v-5.66h31.34v5.66h-12.59v29.03h-6.16v-29.03zM64.97 38.42h-24.34v-34.69h24.34v5.66h-18.17v8.33h16.82v5.66h-16.82v9.38h18.17zM95.36 3.48v0c3.647 0 7.107 0.643 10.38 1.93v0l0.9 0.37-1.93 5.27-0.93-0.32c-3.153-1.053-6.01-1.58-8.57-1.58v0c-2.013 0-3.88 0.33-5.6 0.99-1.713 0.66-3.137 1.543-4.27 2.65-1.133 1.107-2.013 2.373-2.64 3.8-0.627 1.433-0.94 2.933-0.94 4.5v0c0 1.607 0.34 3.14 1.02 4.6 0.673 1.453 1.617 2.73 2.83 3.83 1.213 1.1 2.74 1.97 4.58 2.61 1.833 0.647 3.843 0.97 6.03 0.97v0c2.667 0 5.333-0.473 8-1.42v0l0.91-0.32 2 4.89-0.9 0.39c-3.533 1.513-7.263 2.27-11.19 2.27v0c-3.04 0-5.8-0.463-8.28-1.39-2.487-0.927-4.533-2.2-6.14-3.82-1.613-1.62-2.857-3.507-3.73-5.66-0.867-2.147-1.3-4.457-1.3-6.93v0c0-2.507 0.447-4.833 1.34-6.98 0.893-2.147 2.17-4.01 3.83-5.59 1.66-1.58 3.743-2.817 6.25-3.71 2.507-0.9 5.29-1.35 8.35-1.35zM140.09 17.69v-13.96h6.15v34.69h-6.15v-15.06h-18.56v15.06h-6.15v-34.69h6.15v13.96z" fill="#000000" fill-rule="nonzero" stroke="none" stroke-width="1" stroke-linecap="butt" stroke-linejoin="miter" stroke-miterlimit="10" stroke-dasharray="" stroke-dashoffset="0" font-family="none" font-weight="none" font-size="none" text-anchor="none" style="mix-blend-mode: normal" data-fill-palette-color="primary" opacity="1"></path></g></svg></g></svg></g><g transform="matrix(1,0,0,1,0,143.0851926081592)"><svg viewBox="0 0 232.209792 20.214513411764706" height="20.214513411764706" width="232.209792"><g transform="matrix(1,0,0,1,0,0)"><svg width="232.209792" viewBox="-0.7300000190734863 -37.66800308227539 478.07000732421875 41.62800216674805" height="20.214513411764706" data-palette-color="#0080ff"><path d="M22.9-34.91L22.9-34.91Q22.8-34.72 22.83-34.52 22.85-34.33 22.85-34.08L22.85-34.08Q22.75-33.5 22.85-33.5 22.95-33.5 22.95-33.4L22.95-33.4 22.61-32.91Q22.61-32.62 22.49-32.37 22.36-32.13 22.41-31.79L22.41-31.79Q22.27-31.54 22.14-31.3 22.02-31.05 21.78-30.81L21.78-30.81 21.14-30.81Q20.61-30.81 20-30.74 19.38-30.66 18.8-30.66L18.8-30.66Q18.7-30.66 18.55-30.69 18.41-30.71 18.26-30.71L18.26-30.71Q18.16-30.71 18.02-30.69 17.87-30.66 17.68-30.66L17.68-30.66Q16.94-30.66 16.24-30.74 15.53-30.81 14.75-30.81L14.75-30.81Q14.55-30.81 14.36-30.81 14.16-30.81 13.92-30.76L13.92-30.76Q13.87-29.93 13.84-29.08 13.82-28.22 13.82-27.34L13.82-27.34Q13.82-27.1 13.77-26.83 13.72-26.56 13.72-26.32L13.72-26.32Q13.67-25.68 13.65-25.1 13.62-24.51 13.62-23.88L13.62-23.88Q13.62-22.51 13.65-21.14 13.67-19.78 13.72-18.36L13.72-18.36Q13.77-17.63 13.82-16.94 13.87-16.26 13.87-15.53L13.87-15.53Q13.87-13.87 13.82-12.23 13.77-10.6 13.77-8.94L13.77-8.94Q13.77-8.4 13.72-7.93 13.67-7.47 13.67-6.93L13.67-6.93Q13.67-5.81 13.72-4.69 13.77-3.56 13.77-2.44L13.77-2.44Q13.77-1.9 13.75-1.37 13.72-0.83 13.72-0.29L13.72-0.29Q13.48 0.1 13.38 0.39 13.28 0.68 12.79 0.68L12.79 0.68Q12.45 0.59 12.48 0.46 12.5 0.34 12.4 0.24L12.4 0.24Q11.96 0.2 11.74 0.32 11.52 0.44 11.23 0.54L11.23 0.54Q11.08 0.49 10.91 0.49 10.74 0.49 10.6 0.49L10.6 0.49Q10.5 0.49 10.4 0.56 10.3 0.63 9.96 0.63L9.96 0.63Q9.67 0.68 9.62 0.54 9.57 0.39 9.33 0.39L9.33 0.39Q9.08 0.54 8.76 0.61 8.45 0.68 8.15 0.68L8.15 0.68Q7.86 0.49 7.89 0.32 7.91 0.15 7.81-0.05L7.81-0.05Q7.76-0.15 7.64-0.32 7.52-0.49 7.42-0.59L7.42-0.59Q7.52-1.27 7.57-1.81 7.62-2.34 7.62-2.98L7.62-2.98Q7.62-4.25 7.52-5.47 7.42-6.69 7.42-7.96L7.42-7.96Q7.42-8.35 7.52-8.79 7.62-9.23 7.62-9.72L7.62-9.72Q7.52-10.11 7.57-10.18 7.62-10.25 7.62-10.35L7.62-10.35Q7.62-10.64 7.59-10.94 7.57-11.23 7.57-11.52L7.57-11.52Q7.57-12.11 7.59-12.7 7.62-13.28 7.62-13.87L7.62-13.87Q7.62-14.11 7.59-14.38 7.57-14.65 7.57-14.89L7.57-14.89Q7.52-15.33 7.54-15.82 7.57-16.31 7.57-16.8L7.57-16.8Q7.57-19.14 7.5-21.44 7.42-23.73 7.42-26.07L7.42-26.07Q7.42-27.2 7.54-28.37 7.67-29.54 7.67-30.71L7.67-30.71Q7.67-30.86 7.57-31.1 7.47-31.35 7.37-31.45L7.37-31.45Q7.13-31.45 6.91-31.47 6.69-31.49 6.45-31.49L6.45-31.49Q5.91-31.49 5.42-31.35L5.42-31.35Q4.49-31.3 3.64-31.23 2.78-31.15 1.9-31.1L1.9-31.1Q1.32-31.15 1.2-31.13 1.07-31.1 0.93-31.1L0.93-31.1Q0.54-31.1 0.34-31.3L0.34-31.3 0.34-31.93Q0.05-32.52 0.1-32.57 0.15-32.62 0.15-32.71L0.15-32.71Q0.15-32.86-0.12-33.03-0.39-33.2-0.39-33.59L-0.39-33.59Q-0.44-33.98-0.59-34.18-0.73-34.38-0.73-34.57L-0.73-34.57Q-0.73-34.91-0.59-35.35L-0.59-35.35Q-0.15-35.6 0.27-35.69 0.68-35.79 1.22-35.94L1.22-35.94Q1.51-36.04 1.76-36.13 2-36.23 2.29-36.28L2.29-36.28Q2.64-36.33 2.98-36.33 3.32-36.33 3.66-36.38L3.66-36.38Q4.39-36.52 5.2-36.62 6.01-36.72 6.74-36.72L6.74-36.72Q7.42-36.72 8.11-36.55 8.79-36.38 9.33-36.38L9.33-36.38Q10.11-36.38 10.82-36.28 11.52-36.18 12.3-36.18L12.3-36.18Q12.4-36.18 12.62-36.11 12.84-36.04 13.13-36.04L13.13-36.04 17.87-36.04Q18.26-35.94 18.43-35.99 18.6-36.04 18.75-36.04L18.75-36.04Q19.14-36.04 19.48-35.99 19.82-35.94 20.21-35.94L20.21-35.94Q20.56-35.94 20.75-35.99L20.75-35.99Q21.14-35.94 21.48-35.77 21.83-35.6 22.27-35.6L22.27-35.6Q22.46-35.45 22.56-35.23 22.66-35.01 22.9-34.91ZM45.8-36.28L46.29-36.13Q46.87-36.28 47.12-36.25 47.36-36.23 47.6-36.18L47.6-36.18Q47.9-35.99 48.09-35.69L48.09-35.69Q48.09-34.67 48.07-33.67 48.04-32.67 48.04-31.64L48.04-31.64Q48.04-29.79 48.09-27.93 48.14-26.07 48.09-24.22L48.09-24.22Q48.19-23.78 48.14-23.73 48.09-23.68 48.09-23.58L48.09-23.58Q48.09-21.73 48.19-19.92 48.29-18.12 48.29-16.26L48.29-16.26 48.29-9.77Q48.29-7.67 48.41-5.62 48.53-3.56 48.53-1.51L48.53-1.51Q48.53-1.32 48.29-0.98L48.29-0.98Q48.19-0.59 48-0.34L48-0.34Q47.56-0.29 47.17-0.49L47.17-0.49Q46.97-0.49 46.9-0.37 46.82-0.24 46.68-0.15L46.68-0.15Q46.29-0.15 46.04 0.05 45.8 0.24 45.46 0.24L45.46 0.24Q45.16 0.24 44.89 0.17 44.63 0.1 44.28 0.1L44.28 0.1Q44.19 0.1 43.99 0.27 43.8 0.44 43.7 0.49L43.7 0.49Q43.45 0.49 43.26 0.56 43.06 0.63 42.82 0.63L42.82 0.63Q42.58 0.44 42.6 0.05 42.62-0.34 42.28-0.44L42.28-0.44Q42.28-0.68 42.31-0.98 42.33-1.27 42.33-1.56L42.33-1.56Q42.33-3.47 42.23-5.4 42.14-7.32 42.09-9.23L42.09-9.23Q42.04-10.06 42.06-10.86 42.09-11.67 42.09-12.5L42.09-12.5Q42.09-12.94 42.09-13.38 42.09-13.82 41.99-14.21L41.99-14.21Q41.7-14.26 41.48-14.14 41.26-14.01 41.01-14.01L41.01-14.01Q39.99-13.67 39.65-13.33L39.65-13.33Q39.35-13.33 39.16-13.23 38.96-13.13 38.72-13.04L38.72-13.04Q38.33-12.94 37.96-12.87 37.6-12.79 37.2-12.65L37.2-12.65Q36.96-12.55 36.72-12.45 36.47-12.35 36.23-12.26L36.23-12.26Q35.69-12.06 35.15-11.89 34.62-11.72 34.08-11.52L34.08-11.52Q33.54-11.43 33.15-11.23 32.76-11.04 32.37-10.84L32.37-10.84Q32.03-8.54 32-6.47 31.98-4.39 32.13-2.34L32.13-2.34Q32.03-2.05 32.03-1.68 32.03-1.32 31.88-1.07L31.88-1.07Q31.35-0.93 31.17-1.05 31-1.17 30.81-1.27L30.81-1.27Q30.61-1.22 30.49-1.07 30.37-0.93 30.27-0.83L30.27-0.83Q29.88-0.83 29.66-0.66 29.44-0.49 29.25-0.39L29.25-0.39Q29.1-0.34 28.95-0.39 28.81-0.44 28.61-0.34L28.61-0.34Q28.12-0.34 28.15-0.46 28.17-0.59 28.02-0.59L28.02-0.59Q27.83-0.59 27.76-0.42 27.68-0.24 27.49-0.15L27.49-0.15Q27.29-0.05 27.05-0.02 26.8 0 26.56 0.1L26.56 0.1Q26.32-0.15 26.32-0.44 26.32-0.73 26.07-0.98L26.07-0.98Q25.97-1.66 25.95-2.32 25.93-2.98 25.78-3.66L25.78-3.66Q25.88-5.03 25.85-5.86 25.83-6.69 25.83-7.57L25.83-7.57Q25.83-8.35 25.78-9.13 25.73-9.91 25.68-10.69L25.68-10.69Q25.58-12.11 25.51-13.57 25.44-15.04 25.44-16.5L25.44-16.5Q25.44-17.72 25.56-18.9 25.68-20.07 25.68-21.29L25.68-21.29Q25.68-22.12 25.71-22.92 25.73-23.73 25.73-24.56L25.73-24.56Q25.73-25.24 25.71-25.9 25.68-26.56 25.68-27.2L25.68-27.2Q25.68-27.93 25.78-28.64 25.88-29.35 25.88-30.03L25.88-30.03Q25.88-30.86 25.78-31.67 25.68-32.47 25.68-33.3L25.68-33.3Q25.68-33.54 25.73-33.76 25.78-33.98 25.78-34.23L25.78-34.23Q25.73-34.77 25.83-34.89 25.93-35.01 26.02-35.21L26.02-35.21Q26.27-35.25 26.56-35.35 26.85-35.45 27.1-35.35L27.1-35.35Q27.39-35.64 27.9-35.64 28.42-35.64 28.66-35.99L28.66-35.99Q29-35.94 29.12-35.96 29.25-35.99 29.34-35.99L29.34-35.99Q29.78-35.89 29.81-36.01 29.83-36.13 29.98-36.13L29.98-36.13Q30.22-36.13 30.73-36.11 31.25-36.08 31.44-35.89L31.44-35.89Q31.93-33.3 31.98-30.62 32.03-27.93 32.03-25.29L32.03-25.29Q32.03-24.61 32.08-23.9 32.13-23.19 32.03-22.51L32.03-22.51Q32.03-22.22 31.98-21.95 31.93-21.68 31.93-21.39L31.93-21.39Q31.93-20.56 31.83-19.65 31.74-18.75 31.74-17.92L31.74-17.92Q32.32-17.58 32.74-17.7 33.15-17.82 33.54-17.97L33.54-17.97Q34.03-18.12 34.45-18.29 34.86-18.46 35.3-18.6L35.3-18.6Q35.69-18.8 36.15-18.92 36.62-19.04 37.01-19.14L37.01-19.14Q38.28-19.58 39.5-20.21 40.72-20.85 41.99-21.24L41.99-21.24Q41.89-23.93 41.89-26.59 41.89-29.25 41.89-31.88L41.89-31.88Q41.89-32.62 41.89-33.4 41.89-34.18 41.99-34.91L41.99-34.91Q42.04-35.11 42.11-35.23 42.19-35.35 42.19-35.6L42.19-35.6Q42.33-35.84 42.53-35.94 42.72-36.04 42.82-36.23L42.82-36.23Q42.92-36.13 43.04-36.06 43.16-35.99 43.31-35.94L43.31-35.94Q43.7-36.04 43.77-36.08 43.85-36.13 43.94-36.18L43.94-36.18Q44.19-36.28 44.58-36.28 44.97-36.28 45.21-36.28L45.21-36.28 45.8-36.28ZM62.2-33.2L62.2-33.2Q62.2-32.76 61.91-32.54 61.62-32.32 61.37-31.98L61.37-31.98Q60.88-31.54 60.52-31.08 60.15-30.62 59.66-30.18L59.66-30.18Q59.47-29.98 59.13-29.66 58.78-29.35 58.42-29.03 58.05-28.71 57.69-28.47 57.32-28.22 57.08-28.22L57.08-28.22Q56.68-28.22 56.07-28.49 55.46-28.76 55.02-28.86L55.02-28.86Q54.68-28.91 54.41-28.93 54.15-28.96 53.9-29.2L53.9-29.2Q53.02-29.39 52.78-29.81 52.53-30.22 52.24-30.66L52.24-30.66Q52.24-30.86 52.39-30.91 52.53-30.96 52.63-31.1L52.63-31.1Q53.12-31.74 53.46-32.15 53.8-32.57 54.24-33.01L54.24-33.01Q55.07-33.74 55.83-34.52 56.59-35.3 57.42-35.99L57.42-35.99Q57.81-36.04 58-36.28 58.2-36.52 58.59-36.52L58.59-36.52Q58.98-36.52 59.25-36.28 59.52-36.04 59.74-35.72 59.96-35.4 60.18-35.08 60.4-34.77 60.69-34.62L60.69-34.62Q61.03-34.38 61.62-33.98 62.2-33.59 62.2-33.2ZM55.51-24.12L55.51-24.12Q55.85-23.93 56.03-23.61 56.2-23.29 56.54-23.14L56.54-23.14Q56.83-23 57.17-23 57.51-23 57.76-22.9L57.76-22.9Q57.95-22.8 58.05-22.66 58.15-22.51 58.25-22.36L58.25-22.36Q58.54-22.12 59.15-21.92 59.76-21.73 59.96-21.48L59.96-21.48Q60.3-21.04 60.47-20.36 60.64-19.68 60.74-18.92 60.83-18.16 60.88-17.41 60.93-16.65 61.03-16.11L61.03-16.11Q61.13-14.99 61.27-13.89 61.42-12.79 61.42-11.67L61.42-11.67Q61.42-10.55 61.32-9.38 61.23-8.2 61.23-7.08L61.23-7.08Q61.23-6.49 61.2-5.62 61.18-4.74 60.79-4.25L60.79-4.25Q60.74-4.05 60.74-3.56L60.74-3.56 60.74-2Q60.74-1.71 60.79-1.42 60.83-1.12 60.83-0.78L60.83-0.78Q60.83-0.24 60.54 0L60.54 0Q60.4-0.05 60.22-0.05 60.05-0.05 59.91-0.05L59.91-0.05Q59.37-0.05 59.13 0.15L59.13 0.15Q58.59 0.1 58.1 0.05 57.61 0 57.08 0L57.08 0Q56.25 0 55.27 0.24L55.27 0.24Q55.07-0.24 55.1-0.78 55.12-1.32 54.88-1.76L54.88-1.76Q54.83-1.9 54.8-2.03 54.78-2.15 54.78-2.29L54.78-2.29Q54.93-2.88 54.93-3.1 54.93-3.32 54.93-3.56L54.93-3.56Q54.93-4.25 54.88-4.96 54.83-5.66 54.93-6.35L54.93-6.35Q54.93-6.59 55-6.79 55.07-6.98 55.07-7.23L55.07-7.23Q55.07-7.47 54.98-7.57 54.88-7.67 54.88-7.81L54.88-7.81Q54.88-7.96 54.9-8.3 54.93-8.64 55.02-8.74L55.02-8.74Q55.02-9.13 55.05-9.5 55.07-9.86 55.07-10.21L55.07-10.21Q55.07-10.99 55.02-11.77 54.98-12.55 54.98-13.28L54.98-13.28Q54.98-13.62 54.93-13.72 54.88-13.82 54.83-13.87 54.78-13.92 54.68-13.94 54.58-13.96 54.54-14.11L54.54-14.11Q54.73-16.26 54.39-18.41 54.05-20.56 54.05-22.75L54.05-22.75Q54.05-23.1 54.15-23.27 54.24-23.44 54.39-23.54 54.54-23.63 54.66-23.75 54.78-23.88 54.83-24.12L54.83-24.12Q55.22-24.02 55.51-24.12ZM83.2-36.43L83.2-36.43Q83.98-36.52 84.39-36.3 84.81-36.08 85.25-36.04L85.25-36.04Q85.49-35.99 85.76-36.01 86.03-36.04 86.32-36.04L86.32-36.04Q86.96-36.04 87.32-35.89 87.69-35.74 88.08-35.25L88.08-35.25Q88.18-35.16 88.35-34.99 88.52-34.81 88.52-34.67L88.52-34.67Q88.52-34.28 88.32-33.98 88.13-33.69 88.13-33.15L88.13-33.15Q88.13-32.32 88.32-31.52 88.52-30.71 88.57-29.88L88.57-29.88Q88.81-26.86 88.84-23.8 88.86-20.75 88.86-17.77L88.86-17.77Q88.86-17.38 88.84-17.07 88.81-16.75 88.62-16.5L88.62-16.5 88.62-15.87Q88.57-14.6 88.66-13.31 88.76-12.01 88.76-10.74L88.76-10.74Q88.76-9.62 88.64-8.5 88.52-7.37 88.52-6.2L88.52-6.2Q88.52-5.13 88.66-4.1 88.81-3.08 88.81-2L88.81-2Q88.57-1.56 88.52-1.32 88.47-1.07 88.32-0.88L88.32-0.88Q88.18-0.78 88.01-0.83 87.83-0.88 87.74-0.73L87.74-0.73Q87.49-0.44 87.39-0.05 87.3 0.34 86.91 0.59L86.91 0.59Q86.81 1.27 86.39 1.64 85.98 2 85.78 2.59L85.78 2.59Q85.2 2.64 84.98 2.54 84.76 2.44 84.51 2.34L84.51 2.34Q84.47 1.51 84.54 1.15 84.61 0.78 84.61 0.39L84.61 0.39Q84.61-0.1 84.37-0.34 84.12-0.59 84.03-0.98L84.03-0.98Q83.49-1.32 83.29-1.44 83.1-1.56 82.95-1.76L82.95-1.76Q82.66-2.15 82.46-2.59 82.27-3.03 82.02-3.42L82.02-3.42Q81.34-4.54 80.63-5.71 79.92-6.88 79.09-8.01L79.09-8.01Q78.95-8.25 78.75-8.45 78.56-8.64 78.41-8.89L78.41-8.89Q77.58-10.21 76.85-11.57 76.12-12.94 75.14-14.16L75.14-14.16Q74.75-14.65 74.55-15.26 74.36-15.87 73.97-16.31L73.97-16.31Q73.92-16.06 73.92-15.77 73.92-15.48 73.92-15.23L73.92-15.23Q73.92-13.57 73.99-11.94 74.06-10.3 74.06-8.64L74.06-8.64Q74.06-8.3 73.99-8.03 73.92-7.76 73.92-7.42L73.92-7.42Q73.92-6.93 73.97-6.49 74.02-6.05 74.02-5.62L74.02-5.62Q74.02-5.08 73.99-4.59 73.97-4.1 73.92-3.61L73.92-3.61Q73.82-2.98 73.67-2.42 73.53-1.86 73.53-1.27L73.53-1.27Q73.53-0.93 73.6-0.63 73.67-0.34 73.67-0.1L73.67-0.1Q73.33 0.44 72.82 0.44 72.31 0.44 71.97 0.83L71.97 0.83Q71.67 0.78 71.5 0.88 71.33 0.98 71.18 0.98L71.18 0.98Q70.99 0.98 70.87 0.93 70.74 0.88 70.6 0.88L70.6 0.88Q70.35 0.88 70.11 1.12 69.87 1.37 69.62 1.37L69.62 1.37Q69.47 1.37 69.11 1.17 68.74 0.98 68.33 0.71 67.91 0.44 67.57 0.17 67.23-0.1 67.23-0.24L67.23-0.24Q67.18-0.49 67.18-0.93L67.18-0.93Q67.18-1.51 67.25-2.08 67.33-2.64 67.42-3.22L67.42-3.22Q67.57-4.88 67.57-6.52 67.57-8.15 67.57-9.81L67.57-9.81Q67.57-10.5 67.6-11.18 67.62-11.87 67.62-12.55L67.62-12.55Q67.62-14.16 67.5-15.8 67.38-17.43 67.38-19.04L67.38-19.04Q67.38-20.17 67.47-21.26 67.57-22.36 67.57-23.44L67.57-23.44Q67.57-24.27 67.52-25.05 67.47-25.83 67.47-26.66L67.47-26.66Q67.42-27.2 67.47-27.81 67.52-28.42 67.52-28.96L67.52-28.96Q67.52-29.59 67.35-30.15 67.18-30.71 67.18-31.2L67.18-31.2Q67.18-31.49 67.3-31.76 67.42-32.03 67.42-32.32L67.42-32.32Q67.42-32.71 67.3-33.11 67.18-33.5 67.18-33.89L67.18-33.89Q67.18-34.28 67.28-34.62 67.38-34.96 67.38-35.35L67.38-35.35Q68.06-35.69 68.6-35.69L68.6-35.69Q69.13-35.69 69.38-35.3L69.38-35.3Q69.38-34.42 69.47-33.96 69.57-33.5 69.62-33.01L69.62-33.01Q69.62-32.71 69.6-32.32 69.57-31.93 69.62-31.57 69.67-31.2 69.84-30.96 70.01-30.71 70.45-30.71L70.45-30.71Q70.55-30.47 70.7-30.27 70.84-30.08 70.89-29.79L70.89-29.79Q71.18-29.98 71.23-30.32 71.28-30.66 71.23-30.96L71.23-30.96Q71.48-30.86 71.67-30.88 71.87-30.91 72.06-30.81L72.06-30.81Q72.16-30.13 72.31-29.61 72.45-29.1 72.4-28.42L72.4-28.42Q73.38-27.69 74.09-26.34 74.8-25 75.43-23.93L75.43-23.93Q75.77-23.39 76.24-22.92 76.7-22.46 76.95-21.83L76.95-21.83Q77.34-21.58 77.58-21.19 77.82-20.8 78.02-20.41L78.02-20.41Q79-18.7 80.17-17.09 81.34-15.48 82.61-13.92L82.61-13.92Q82.66-14.26 82.66-14.58 82.66-14.89 82.66-15.23L82.66-15.23 82.61-19.63Q82.61-20.02 82.59-20.36 82.56-20.7 82.51-21.09L82.51-21.09Q82.41-22.36 82.46-23.58 82.51-24.8 82.46-26.07L82.46-26.07Q82.37-27.39 82.34-28.76 82.32-30.13 82.22-31.49L82.22-31.49Q82.17-32.32 82.12-33.15 82.07-33.98 82.07-34.81L82.07-34.81Q82.07-35.84 82.27-36.67L82.27-36.67Q82.37-36.77 82.49-36.84 82.61-36.91 82.81-36.91L82.81-36.91Q83.1-36.91 83.2-36.43ZM115.62 0.15L115.27 0.1Q115.03 0.68 114.25 1.07L114.25 1.07Q113.91 0.88 113.64 0.61 113.37 0.34 112.98 0.2L112.98 0.2Q112.69-0.39 112.54-0.51 112.39-0.63 112.2-0.68L112.2-0.68Q111.9-0.93 111.71-1.27 111.51-1.61 111.27-1.86L111.27-1.86Q111.17-1.9 110.9-2.17 110.63-2.44 110.34-2.73 110.05-3.03 109.8-3.3 109.56-3.56 109.51-3.56L109.51-3.56Q109.07-3.86 108.73-4.2L108.73-4.2Q108.63-4.35 108.51-4.52 108.39-4.69 108.29-4.79L108.29-4.79Q107.9-4.93 107.66-5.2 107.41-5.47 107.19-5.81 106.97-6.15 106.7-6.42 106.44-6.69 106.09-6.84L106.09-6.84Q105.75-7.32 105.26-7.64 104.78-7.96 104.43-8.4L104.43-8.4Q104.14-8.74 103.8-9.06 103.46-9.38 103.07-9.67L103.07-9.67Q102.87-9.96 102.43-10.52 101.99-11.08 101.65-11.13L101.65-11.13Q101.6-10.01 101.58-8.89 101.55-7.76 101.5-6.64L101.5-6.64Q101.5-6.05 101.53-5.42 101.55-4.79 101.5-4.15L101.5-4.15Q101.45-3.91 101.38-3.64 101.31-3.37 101.31-3.08L101.31-3.08Q101.31-2.49 101.24-2.32 101.16-2.15 101.11-2L101.11-2Q100.97-1.51 100.84-0.81 100.72-0.1 100.33 0.29L100.33 0.29Q99.79 0.34 99.5 0.2L99.5 0.2Q99.4 0.29 99.31 0.39 99.21 0.49 99.01 0.49L99.01 0.49Q98.92 0.39 98.7 0.32 98.48 0.24 98.38 0.24L98.38 0.24Q98.13 0.24 97.87 0.34 97.6 0.44 97.35 0.44L97.35 0.44Q97.11 0.44 96.94 0.32 96.77 0.2 96.52 0.2L96.52 0.2Q96.38 0.2 96.18 0.34 95.99 0.49 95.79 0.49L95.79 0.49Q95.55 0.49 95.38 0.42 95.2 0.34 95.01 0.29L95.01 0.29Q95.01 0.15 95.03 0 95.06-0.15 95.01-0.29L95.01-0.29 94.81-1.51Q94.86-1.86 94.94-2.2 95.01-2.54 95.06-2.83L95.06-2.83Q95.11-3.61 95.13-4.32 95.16-5.03 95.16-5.76L95.16-5.76Q95.16-7.03 95.13-8.25 95.11-9.47 95.16-10.74L95.16-10.74Q95.2-11.18 95.28-11.65 95.35-12.11 95.35-12.55L95.35-12.55Q95.35-13.82 95.5-15.04 95.64-16.26 95.74-17.53L95.74-17.53Q95.84-18.51 95.84-19.43 95.84-20.36 95.84-21.29L95.84-21.29Q95.84-23.1 95.79-24.88 95.74-26.66 95.74-28.42L95.74-28.42Q95.74-29 95.79-30 95.84-31.01 95.69-31.54L95.69-31.54Q95.74-32.96 95.69-34.33L95.69-34.33Q95.89-34.42 95.91-34.62 95.94-34.81 95.94-35.01L95.94-35.01 95.94-35.69Q96.38-36.18 96.67-36.18L96.67-36.18Q96.91-36.18 97.16-36.13 97.4-36.08 97.65-35.94L97.65-35.94Q98.28-36.08 98.48-35.99 98.67-35.89 98.92-35.79L98.92-35.79Q99.31-35.84 99.45-36.13L99.45-36.13Q99.99-36.04 99.99-35.89 99.99-35.74 100.09-35.6L100.09-35.6Q100.58-35.55 100.75-35.67 100.92-35.79 101.16-35.84L101.16-35.84Q101.6-35.74 101.75-35.6L101.75-35.6Q101.75-35.3 101.89-34.94 102.04-34.57 102.04-33.98L102.04-33.98Q102.04-33.54 101.99-33.13 101.94-32.71 101.94-32.32L101.94-32.32Q101.94-31.64 101.99-31.01 102.04-30.37 102.04-29.69L102.04-29.69Q102.04-29.49 102.02-29.32 101.99-29.15 101.99-28.96L101.99-28.96Q101.99-27.1 102.09-25.2 102.19-23.29 102.19-21.39L102.19-21.39Q102.19-21.29 102.14-21.12 102.09-20.95 102.19-20.85L102.19-20.85Q103.02-21.73 103.6-22.73 104.19-23.73 104.87-24.71L104.87-24.71Q105.46-25.44 106.07-26.46 106.68-27.49 107.12-28.32L107.12-28.32Q107.31-28.61 107.46-28.91 107.61-29.2 107.8-29.49L107.8-29.49Q107.9-29.74 108.07-29.96 108.24-30.18 108.34-30.47L108.34-30.47Q108.58-30.86 108.78-31.23 108.97-31.59 109.22-31.98L109.22-31.98Q109.46-32.37 109.73-32.69 110-33.01 110.24-33.35L110.24-33.35Q110.63-33.98 111.07-34.64 111.51-35.3 111.86-35.99L111.86-35.99Q112.34-36.23 112.73-36.55 113.12-36.87 113.56-37.11L113.56-37.11Q114.05-36.47 114.27-36.23 114.49-35.99 114.88-35.94L114.88-35.94Q114.98-35.79 115-35.6 115.03-35.4 115.18-35.3L115.18-35.3Q115.76-35.25 115.86-35.3L115.86-35.3Q116.01-35.06 116.27-34.94 116.54-34.81 116.79-34.72L116.79-34.72Q116.79-34.57 116.79-34.4 116.79-34.23 116.84-34.13L116.84-34.13Q117.42-33.89 117.42-33.2L117.42-33.2Q116.49-31.54 115.4-30.05 114.3-28.56 113.47-26.86L113.47-26.86Q113.22-26.32 112.91-25.83 112.59-25.34 112.39-24.8L112.39-24.8Q112.05-24.46 111.86-24.1 111.66-23.73 111.37-23.39L111.37-23.39Q111.17-23.14 110.98-22.88 110.78-22.61 110.59-22.36L110.59-22.36Q110.2-21.83 109.88-21.26 109.56-20.7 109.12-20.17L109.12-20.17Q108.83-19.68 108.44-19.19L108.44-19.19Q108.05-18.65 107.78-17.99 107.51-17.33 107.12-16.8L107.12-16.8Q106.73-16.21 106.7-15.94 106.68-15.67 106.44-15.04L106.44-15.04Q106.78-14.5 107.22-14.06 107.66-13.62 108.14-13.23L108.14-13.23Q108.53-12.7 109.05-12.28 109.56-11.87 110.1-11.38L110.1-11.38Q110.29-11.18 110.44-11.01 110.59-10.84 110.78-10.69L110.78-10.69Q111.32-10.11 112.07-9.57 112.83-9.03 113.52-8.54L113.52-8.54Q114.05-8.06 114.86-7.35 115.66-6.64 116.54-5.83 117.42-5.03 118.11-4.32 118.79-3.61 118.79-3.42L118.79-3.42Q118.54-2.69 118.23-2.51 117.91-2.34 117.76-2L117.76-2Q117.47-1.9 117.47-1.81 117.47-1.71 117.32-1.46L117.32-1.46Q116.98-1.22 116.74-0.9 116.49-0.59 116.25-0.29L116.25-0.29Q116.05-0.2 115.88-0.12 115.71-0.05 115.62 0.15L115.62 0.15ZM158.92-34.91L158.92-34.91Q158.82-34.72 158.85-34.52 158.87-34.33 158.87-34.08L158.87-34.08Q158.77-33.5 158.87-33.5 158.97-33.5 158.97-33.4L158.97-33.4 158.63-32.91Q158.63-32.62 158.51-32.37 158.38-32.13 158.43-31.79L158.43-31.79Q158.29-31.54 158.16-31.3 158.04-31.05 157.8-30.81L157.8-30.81 157.16-30.81Q156.63-30.81 156.02-30.74 155.4-30.66 154.82-30.66L154.82-30.66Q154.72-30.66 154.57-30.69 154.43-30.71 154.28-30.71L154.28-30.71Q154.18-30.71 154.04-30.69 153.89-30.66 153.7-30.66L153.7-30.66Q152.96-30.66 152.26-30.74 151.55-30.81 150.77-30.81L150.77-30.81Q150.57-30.81 150.38-30.81 150.18-30.81 149.94-30.76L149.94-30.76Q149.89-29.93 149.86-29.08 149.84-28.22 149.84-27.34L149.84-27.34Q149.84-27.1 149.79-26.83 149.74-26.56 149.74-26.32L149.74-26.32Q149.69-25.68 149.67-25.1 149.64-24.51 149.64-23.88L149.64-23.88Q149.64-22.51 149.67-21.14 149.69-19.78 149.74-18.36L149.74-18.36Q149.79-17.63 149.84-16.94 149.89-16.26 149.89-15.53L149.89-15.53Q149.89-13.87 149.84-12.23 149.79-10.6 149.79-8.94L149.79-8.94Q149.79-8.4 149.74-7.93 149.69-7.47 149.69-6.93L149.69-6.93Q149.69-5.81 149.74-4.69 149.79-3.56 149.79-2.44L149.79-2.44Q149.79-1.9 149.77-1.37 149.74-0.83 149.74-0.29L149.74-0.29Q149.5 0.1 149.4 0.39 149.3 0.68 148.81 0.68L148.81 0.68Q148.47 0.59 148.5 0.46 148.52 0.34 148.42 0.24L148.42 0.24Q147.98 0.2 147.76 0.32 147.54 0.44 147.25 0.54L147.25 0.54Q147.1 0.49 146.93 0.49 146.76 0.49 146.62 0.49L146.62 0.49Q146.52 0.49 146.42 0.56 146.32 0.63 145.98 0.63L145.98 0.63Q145.69 0.68 145.64 0.54 145.59 0.39 145.35 0.39L145.35 0.39Q145.1 0.54 144.78 0.61 144.47 0.68 144.17 0.68L144.17 0.68Q143.88 0.49 143.91 0.32 143.93 0.15 143.83-0.05L143.83-0.05Q143.78-0.15 143.66-0.32 143.54-0.49 143.44-0.59L143.44-0.59Q143.54-1.27 143.59-1.81 143.64-2.34 143.64-2.98L143.64-2.98Q143.64-4.25 143.54-5.47 143.44-6.69 143.44-7.96L143.44-7.96Q143.44-8.35 143.54-8.79 143.64-9.23 143.64-9.72L143.64-9.72Q143.54-10.11 143.59-10.18 143.64-10.25 143.64-10.35L143.64-10.35Q143.64-10.64 143.61-10.94 143.59-11.23 143.59-11.52L143.59-11.52Q143.59-12.11 143.61-12.7 143.64-13.28 143.64-13.87L143.64-13.87Q143.64-14.11 143.61-14.38 143.59-14.65 143.59-14.89L143.59-14.89Q143.54-15.33 143.56-15.82 143.59-16.31 143.59-16.8L143.59-16.8Q143.59-19.14 143.52-21.44 143.44-23.73 143.44-26.07L143.44-26.07Q143.44-27.25 143.56-28.39 143.69-29.54 143.69-30.71L143.69-30.71Q143.69-30.86 143.59-31.1 143.49-31.35 143.39-31.45L143.39-31.45Q143.15-31.45 142.93-31.47 142.71-31.49 142.47-31.49L142.47-31.49Q141.93-31.49 141.44-31.35L141.44-31.35Q140.51-31.3 139.66-31.23 138.8-31.15 137.92-31.1L137.92-31.1Q137.34-31.15 137.22-31.13 137.09-31.1 136.95-31.1L136.95-31.1Q136.56-31.1 136.36-31.3L136.36-31.3 136.36-31.93Q136.07-32.52 136.12-32.57 136.17-32.62 136.17-32.71L136.17-32.71Q136.17-32.86 135.9-33.03 135.63-33.2 135.63-33.59L135.63-33.59Q135.58-33.98 135.43-34.18 135.29-34.38 135.29-34.57L135.29-34.57Q135.29-34.91 135.43-35.35L135.43-35.35Q135.87-35.6 136.29-35.69 136.7-35.79 137.24-35.94L137.24-35.94Q137.53-36.04 137.78-36.13 138.02-36.23 138.32-36.28L138.32-36.28Q138.66-36.33 139-36.33 139.34-36.33 139.68-36.38L139.68-36.38Q140.41-36.52 141.22-36.62 142.03-36.72 142.76-36.72L142.76-36.72Q143.44-36.72 144.13-36.55 144.81-36.38 145.35-36.38L145.35-36.38Q146.13-36.38 146.84-36.28 147.54-36.18 148.32-36.18L148.32-36.18Q148.42-36.18 148.64-36.11 148.86-36.04 149.15-36.04L149.15-36.04 153.89-36.04Q154.28-35.94 154.45-35.99 154.62-36.04 154.77-36.04L154.77-36.04Q155.16-36.04 155.5-35.99 155.84-35.94 156.24-35.94L156.24-35.94Q156.58-35.94 156.77-35.99L156.77-35.99Q157.16-35.94 157.5-35.77 157.85-35.6 158.29-35.6L158.29-35.6Q158.48-35.45 158.58-35.23 158.68-35.01 158.92-34.91ZM189.92-35.79L189.97-35.99Q190.17-35.64 190.49-35.69 190.8-35.74 191.14-35.64L191.14-35.64 191.68-35.45Q191.97-35.4 192.12-35.33 192.27-35.25 192.41-35.16L192.41-35.16Q192.9-35.21 193.56-34.89 194.22-34.57 194.32-34.42L194.32-34.42Q193.73-32.37 193.12-30.44 192.51-28.52 191.97-26.56L191.97-26.56Q191.83-26.12 191.66-25.46 191.49-24.8 191.32-24.1 191.14-23.39 190.95-22.78 190.75-22.17 190.61-21.83L190.61-21.83 190.36-21.09Q189.48-17.58 188.56-14.14 187.63-10.69 186.51-7.18L186.51-7.18Q186.12-6.05 185.9-4.86 185.68-3.66 185.33-2.49L185.33-2.49Q184.94-1.9 184.92-1.46 184.89-1.03 184.85-0.59 184.8-0.15 184.67 0.24 184.55 0.63 184.26 0.78L184.26 0.78Q184.26 1.17 184.09 1.37 183.92 1.56 183.82 1.81L183.82 1.81Q183.43 1.81 183.01 1.46 182.6 1.12 182.26 0.83L182.26 0.83Q182.01 0.44 181.82-0.02 181.62-0.49 181.53-0.93L181.53-0.93Q181.09-2.93 180.6-4.88 180.11-6.84 179.62-8.79L179.62-8.79Q179.62-8.94 179.55-9.28 179.47-9.62 179.38-10.01 179.28-10.4 179.21-10.69 179.13-10.99 179.08-11.08L179.08-11.08Q178.79-12.94 178.33-14.77 177.86-16.6 177.18-18.31L177.18-18.31Q177.18-18.6 177.08-18.9 176.98-19.19 176.98-19.48L176.98-19.48Q176.89-19.68 176.84-19.97 176.79-20.26 176.59-20.36L176.59-20.36Q176.35-20.36 176.33-20.07 176.3-19.78 176.3-19.53L176.3-19.53Q175.96-18.41 175.76-17.68 175.57-16.94 175.52-16.21L175.52-16.21Q175.23-15.67 175.23-14.94L175.23-14.94Q175.08-14.7 175.03-14.36 174.98-14.01 174.88-13.72L174.88-13.72Q174.05-10.6 173.13-7.76L173.13-7.76Q173.03-7.42 172.98-7.06 172.93-6.69 172.83-6.3L172.83-6.3Q172.54-5.03 172.35-3.81 172.15-2.59 171.96-1.32L171.96-1.32Q171.86-0.88 171.76-0.73 171.66-0.59 171.56-0.54 171.47-0.49 171.39-0.46 171.32-0.44 171.32-0.29L171.32-0.29Q171.08 0.1 171.17 0.2 171.27 0.29 171.27 0.39L171.27 0.39Q171.27 0.49 171 0.51 170.73 0.54 170.64 0.54L170.64 0.54Q170.25 0.39 170.03 0.59 169.81 0.78 169.66 0.78L169.66 0.78Q169.51 0.54 169.32 0.37 169.12 0.2 169.03 0.29L169.03 0.29Q168.54 0.05 168.42 0 168.29-0.05 168.2-0.15L168.2-0.15Q168.1-0.78 167.83-1.39 167.56-2 167.37-2.59L167.37-2.59Q167.17-3.27 167.07-3.98 166.97-4.69 166.83-5.42L166.83-5.42Q166.73-5.76 166.56-6.25 166.39-6.74 166.39-7.03L166.39-7.03Q166.29-7.62 166.27-7.81 166.24-8.01 166.14-8.15L166.14-8.15Q166.14-8.94 165.8-9.94 165.46-10.94 165.31-11.77L165.31-11.77Q164.78-14.6 164.14-17.14L164.14-17.14Q164.05-17.53 163.9-17.87 163.75-18.21 163.61-18.6L163.61-18.6Q163.36-19.34 163.17-20.09 162.97-20.85 162.73-21.63L162.73-21.63Q162.53-22.27 162.36-22.88 162.19-23.49 161.99-24.17L161.99-24.17Q161.9-24.46 161.75-24.76 161.6-25.05 161.46-25.39L161.46-25.39Q161.26-26.07 161.12-26.68 160.97-27.29 160.77-27.88L160.77-27.88Q160.38-29.2 159.97-30.49 159.55-31.79 159.16-33.11L159.16-33.11Q159.16-33.45 159.11-33.62 159.06-33.79 159.11-34.03L159.11-34.03Q159.02-34.23 158.99-34.47 158.97-34.72 158.97-34.96L158.97-34.96 158.97-35.64Q159.21-35.74 159.75-35.91 160.29-36.08 160.53-36.08L160.53-36.08Q161.16-36.04 161.46-36.08 161.75-36.13 161.95-36.33L161.95-36.33Q162.09-36.33 162.21-36.28 162.34-36.23 162.48-36.23L162.48-36.23Q163.07-36.38 163.17-36.28L163.17-36.28Q163.36-36.33 163.46-36.45 163.56-36.57 163.8-36.57L163.8-36.57Q163.9-36.57 164.05-36.33 164.19-36.08 164.29-35.99L164.29-35.99Q164.39-35.74 164.48-35.52 164.58-35.3 164.68-35.06L164.68-35.06Q164.97-34.33 165.19-33.4 165.41-32.47 165.71-31.64L165.71-31.64Q165.95-31.1 166.1-30.49 166.24-29.88 166.44-29.3L166.44-29.3Q166.54-29.05 166.63-28.81 166.73-28.56 166.83-28.32L166.83-28.32Q166.97-27.73 167.15-27.22 167.32-26.71 167.46-26.17L167.46-26.17Q168.05-24.46 168.56-22.73 169.07-21 169.46-19.29L169.46-19.29Q169.56-18.8 169.71-18.16 169.86-17.53 170.15-17.14L170.15-17.14Q170.34-17.29 170.42-17.68 170.49-18.07 170.59-18.31L170.59-18.31Q170.69-18.6 170.76-18.9 170.83-19.19 170.93-19.48L170.93-19.48Q171.08-20.17 171.22-20.78 171.37-21.39 171.56-22.02L171.56-22.02Q171.81-23.1 172.05-24.19 172.3-25.29 172.59-26.42L172.59-26.42Q172.79-27.1 172.98-27.83 173.18-28.56 173.37-29.25L173.37-29.25Q173.47-29.59 173.54-29.93 173.62-30.27 173.71-30.66L173.71-30.66Q173.86-31.05 174.03-31.45 174.2-31.84 174.3-32.23L174.3-32.23Q174.64-33.2 174.93-34.2 175.23-35.21 175.67-36.08L175.67-36.08Q175.76-36.18 175.86-36.25 175.96-36.33 176.11-36.43L176.11-36.43Q176.55-36.04 176.69-35.82 176.84-35.6 177.18-35.6L177.18-35.6Q177.38-35.45 177.45-35.23 177.52-35.01 177.81-35.06L177.81-35.06Q177.96-34.96 178.03-34.79 178.11-34.62 178.3-34.52L178.3-34.52Q178.5-34.08 178.55-34.13 178.6-34.18 178.74-34.13L178.74-34.13Q178.84-33.98 179.3-33.79 179.77-33.59 179.96-33.5L179.96-33.5Q179.96-33.3 180.04-33.15 180.11-33.01 180.11-32.81L180.11-32.81Q180.11-32.57 179.94-31.98 179.77-31.4 179.67-31.05L179.67-31.05Q179.91-30.96 180.01-30.98 180.11-31.01 180.21-31.01L180.21-31.01Q180.7-30.18 180.82-29.17 180.94-28.17 181.04-27.34L181.04-27.34Q181.13-26.95 181.21-26.59 181.28-26.22 181.38-25.83L181.38-25.83Q181.62-24.85 181.84-23.9 182.06-22.95 182.31-21.97L182.31-21.97Q182.31-21.73 182.5-21.44L182.5-21.44Q182.5-21.14 182.67-20.48 182.84-19.82 183.04-19.12 183.23-18.41 183.48-17.77 183.72-17.14 183.87-16.85L183.87-16.85Q184.11-16.99 184.16-17.53 184.21-18.07 184.41-18.31L184.41-18.31Q184.99-20.9 185.65-23.44 186.31-25.98 186.99-28.61L186.99-28.61Q187.43-30.37 187.9-31.98 188.36-33.59 189-35.3L189-35.3Q189.09-35.5 189.09-35.89L189.09-35.89Q189.68-36.04 189.92-35.79L189.92-35.79ZM205.25-33.2L205.25-33.2Q205.25-32.76 204.96-32.54 204.67-32.32 204.42-31.98L204.42-31.98Q203.94-31.54 203.57-31.08 203.2-30.62 202.71-30.18L202.71-30.18Q202.52-29.98 202.18-29.66 201.84-29.35 201.47-29.03 201.1-28.71 200.74-28.47 200.37-28.22 200.13-28.22L200.13-28.22Q199.74-28.22 199.13-28.49 198.52-28.76 198.08-28.86L198.08-28.86Q197.73-28.91 197.47-28.93 197.2-28.96 196.95-29.2L196.95-29.2Q196.07-29.39 195.83-29.81 195.59-30.22 195.29-30.66L195.29-30.66Q195.29-30.86 195.44-30.91 195.59-30.96 195.68-31.1L195.68-31.1Q196.17-31.74 196.51-32.15 196.86-32.57 197.29-33.01L197.29-33.01Q198.12-33.74 198.88-34.52 199.64-35.3 200.47-35.99L200.47-35.99Q200.86-36.04 201.05-36.28 201.25-36.52 201.64-36.52L201.64-36.52Q202.03-36.52 202.3-36.28 202.57-36.04 202.79-35.72 203.01-35.4 203.23-35.08 203.45-34.77 203.74-34.62L203.74-34.62Q204.08-34.38 204.67-33.98 205.25-33.59 205.25-33.2ZM198.56-24.12L198.56-24.12Q198.91-23.93 199.08-23.61 199.25-23.29 199.59-23.14L199.59-23.14Q199.88-23 200.22-23 200.57-23 200.81-22.9L200.81-22.9Q201.01-22.8 201.1-22.66 201.2-22.51 201.3-22.36L201.3-22.36Q201.59-22.12 202.2-21.92 202.81-21.73 203.01-21.48L203.01-21.48Q203.35-21.04 203.52-20.36 203.69-19.68 203.79-18.92 203.89-18.16 203.94-17.41 203.98-16.65 204.08-16.11L204.08-16.11Q204.18-14.99 204.33-13.89 204.47-12.79 204.47-11.67L204.47-11.67Q204.47-10.55 204.37-9.38 204.28-8.2 204.28-7.08L204.28-7.08Q204.28-6.49 204.25-5.62 204.23-4.74 203.84-4.25L203.84-4.25Q203.79-4.05 203.79-3.56L203.79-3.56 203.79-2Q203.79-1.71 203.84-1.42 203.89-1.12 203.89-0.78L203.89-0.78Q203.89-0.24 203.59 0L203.59 0Q203.45-0.05 203.28-0.05 203.11-0.05 202.96-0.05L202.96-0.05Q202.42-0.05 202.18 0.15L202.18 0.15Q201.64 0.1 201.15 0.05 200.66 0 200.13 0L200.13 0Q199.3 0 198.32 0.24L198.32 0.24Q198.12-0.24 198.15-0.78 198.17-1.32 197.93-1.76L197.93-1.76Q197.88-1.9 197.86-2.03 197.83-2.15 197.83-2.29L197.83-2.29Q197.98-2.88 197.98-3.1 197.98-3.32 197.98-3.56L197.98-3.56Q197.98-4.25 197.93-4.96 197.88-5.66 197.98-6.35L197.98-6.35Q197.98-6.59 198.05-6.79 198.12-6.98 198.12-7.23L198.12-7.23Q198.12-7.47 198.03-7.57 197.93-7.67 197.93-7.81L197.93-7.81Q197.93-7.96 197.95-8.3 197.98-8.64 198.08-8.74L198.08-8.74Q198.08-9.13 198.1-9.5 198.12-9.86 198.12-10.21L198.12-10.21Q198.12-10.99 198.08-11.77 198.03-12.55 198.03-13.28L198.03-13.28Q198.03-13.62 197.98-13.72 197.93-13.82 197.88-13.87 197.83-13.92 197.73-13.94 197.64-13.96 197.59-14.11L197.59-14.11Q197.78-16.26 197.44-18.41 197.1-20.56 197.1-22.75L197.1-22.75Q197.1-23.1 197.2-23.27 197.29-23.44 197.44-23.54 197.59-23.63 197.71-23.75 197.83-23.88 197.88-24.12L197.88-24.12Q198.27-24.02 198.56-24.12ZM218.24-13.33L218.24-13.33Q218.34-13.09 218.97-12.28 219.61-11.47 220.41-10.52 221.22-9.57 222-8.69 222.78-7.81 223.07-7.42L223.07-7.42Q224-6.05 224.98-4.74 225.95-3.42 226.83-2L226.83-2Q227.08-1.76 227.22-1.39 227.37-1.03 227.37-0.63L227.37-0.63Q227.37-0.2 227.15-0.17 226.93-0.15 226.69-0.05L226.69-0.05Q226.2 0.29 225.81 0.34 225.42 0.39 225.17 0.39L225.17 0.39Q224.64 0.39 224 0.37 223.37 0.34 222.93 0.44L222.93 0.44Q222.78 0.49 222.58 0.61 222.39 0.73 222.29 0.73L222.29 0.73Q221.9 0.73 221.73 0.61 221.56 0.49 221.27 0.39L221.27 0.39Q220.88-0.05 220.56-0.54 220.24-1.03 219.9-1.51L219.9-1.51Q219.61-1.86 219.26-2.12 218.92-2.39 218.63-2.78L218.63-2.78Q217.85-3.91 217.04-4.93 216.24-5.96 215.41-6.98L215.41-6.98Q215.02-7.52 214.55-8.01 214.09-8.5 213.7-8.98L213.7-8.98Q213.31-9.52 212.97-10.11 212.62-10.69 212.23-11.23L212.23-11.23Q211.94-11.72 211.4-12.43 210.87-13.13 210.28-13.87 209.69-14.6 209.08-15.26 208.47-15.92 208.03-16.26L208.03-16.26Q208.03-16.6 207.84-16.75 207.64-16.89 207.4-17.09L207.4-17.09Q207.3-17.33 207.16-17.55 207.01-17.77 207.01-18.07L207.01-18.07Q207.01-18.26 207.06-18.41 207.11-18.55 207.16-18.7L207.16-18.7Q207.25-18.9 207.28-19.07 207.3-19.24 207.4-19.43L207.4-19.43Q207.64-20.07 208.11-20.56 208.57-21.04 208.82-21.68L208.82-21.68Q208.86-21.88 208.86-22.05 208.86-22.22 208.96-22.41L208.96-22.41Q209.11-22.71 209.4-23 209.69-23.29 209.94-23.63L209.94-23.63Q210.18-24.07 210.43-24.51 210.67-24.95 210.92-25.39L210.92-25.39Q211.6-26.51 212.43-27.56 213.26-28.61 213.99-29.64L213.99-29.64Q214.67-30.62 215.26-31.57 215.85-32.52 216.53-33.5L216.53-33.5Q216.87-33.98 217.31-34.59 217.75-35.21 218.21-35.79 218.68-36.38 219.17-36.89 219.66-37.4 220.14-37.65L220.14-37.65Q220.97-37.74 221.22-37.38 221.46-37.01 221.9-37.01L221.9-37.01Q222.58-36.87 222.83-36.57 223.07-36.28 223.32-36.04L223.32-36.04Q223.95-36.04 224.39-35.79 224.83-35.55 225.27-35.06L225.27-35.06Q225.08-34.52 224.76-34.08 224.44-33.64 224.2-33.15L224.2-33.15Q223.81-33.01 223.63-32.67 223.46-32.32 223.12-32.08L223.12-32.08Q222.58-31.25 222.05-30.44 221.51-29.64 220.97-28.91L220.97-28.91Q220.73-28.61 220.41-28.44 220.09-28.27 219.9-27.93L219.9-27.93Q219.8-27.78 219.75-27.61 219.7-27.44 219.61-27.29L219.61-27.29Q219.02-26.37 218.29-25.49 217.56-24.61 217.02-23.63L217.02-23.63Q216.77-23.29 216.63-22.92 216.48-22.56 216.29-22.22L216.29-22.22Q216.09-21.92 215.72-21.39 215.36-20.85 214.99-20.29 214.63-19.73 214.36-19.21 214.09-18.7 214.09-18.36L214.09-18.36Q214.14-18.12 214.72-17.38 215.31-16.65 216.02-15.82 216.73-14.99 217.38-14.26 218.04-13.53 218.24-13.33ZM236.99-12.79L236.99-12.79Q237.08-12.55 237.69-11.77 238.31-10.99 239.09-10.06 239.87-9.13 240.58-8.28 241.28-7.42 241.58-7.03L241.58-7.03Q242.11-6.35 242.63-5.69 243.14-5.03 243.58-4.3L243.58-4.3 244.46-2.83Q244.85-2.34 245.17-2 245.48-1.66 245.68-1.07L245.68-1.07Q245.78-0.68 245.78-0.54L245.78-0.54Q245.78-0.2 245.53-0.05L245.53-0.05Q245.14-0.05 245.12 0.07 245.09 0.2 244.9 0.29L244.9 0.29Q244.7 0.39 244.29 0.42 243.87 0.44 243.63 0.44L243.63 0.44Q243.19 0.44 242.53 0.42 241.87 0.39 241.48 0.54L241.48 0.54Q241.38 0.59 241.19 0.68 240.99 0.78 240.89 0.78L240.89 0.78Q240.5 0.78 240.33 0.66 240.16 0.54 239.87 0.49L239.87 0.49Q239.48 0.05 239.21-0.42 238.94-0.88 238.6-1.37L238.6-1.37Q238.26-1.71 237.91-1.98 237.57-2.25 237.33-2.59L237.33-2.59Q236.6-3.66 235.81-4.69 235.03-5.71 234.2-6.69L234.2-6.69Q233.81-7.23 233.37-7.67 232.93-8.11 232.54-8.64L232.54-8.64Q232.15-9.13 231.81-9.69 231.47-10.25 231.13-10.79L231.13-10.79Q230.83-11.23 230.35-11.94 229.86-12.65 229.27-13.35 228.69-14.06 228.1-14.7 227.51-15.33 227.12-15.67L227.12-15.67Q227.07-15.97 226.88-16.14 226.68-16.31 226.44-16.46L226.44-16.46Q226.34-16.7 226.22-16.92 226.1-17.14 226.1-17.38L226.1-17.38Q226.1-17.72 226.24-18.02L226.24-18.02Q226.34-18.21 226.37-18.38 226.39-18.55 226.49-18.75L226.49-18.75Q226.73-19.29 227.15-19.8 227.56-20.31 227.81-20.9L227.81-20.9Q227.9-21.04 227.9-21.22 227.9-21.39 228-21.53L228-21.53Q228.1-21.92 228.42-22.19 228.73-22.46 228.93-22.8L228.93-22.8Q229.17-23.19 229.39-23.61 229.61-24.02 229.86-24.51L229.86-24.51Q230.59-25.73 231.4-26.88 232.2-28.03 233.03-29.2L233.03-29.2Q233.67-30.18 234.28-31.08 234.89-31.98 235.52-32.91L235.52-32.91Q235.86-33.35 236.25-33.94 236.64-34.52 237.11-35.11 237.57-35.69 238.06-36.18 238.55-36.67 239.04-36.96L239.04-36.96Q239.77-37.01 240.01-36.65 240.26-36.28 240.75-36.28L240.75-36.28Q241.38-36.13 241.58-35.89 241.77-35.64 242.02-35.4L242.02-35.4Q242.7-35.4 243.11-35.16 243.53-34.91 243.92-34.42L243.92-34.42Q243.77-33.89 243.48-33.47 243.19-33.06 242.94-32.62L242.94-32.62Q242.55-32.42 242.38-32.08 242.21-31.74 241.87-31.54L241.87-31.54Q241.38-30.71 240.84-29.96 240.31-29.2 239.77-28.47L239.77-28.47Q239.48-28.03 239.16-27.69 238.84-27.34 238.6-26.95L238.6-26.95Q238.5-26.81 238.43-26.64 238.35-26.46 238.26-26.32L238.26-26.32Q237.67-25.39 236.99-24.58 236.3-23.78 235.72-22.8L235.72-22.8Q235.52-22.46 235.4-22.09 235.28-21.73 235.08-21.39L235.08-21.39Q234.89-21.09 234.52-20.61 234.15-20.12 233.81-19.56 233.47-18.99 233.2-18.48 232.93-17.97 232.93-17.63L232.93-17.63Q232.98-17.38 233.54-16.67 234.11-15.97 234.81-15.16 235.52-14.36 236.16-13.65 236.79-12.94 236.99-12.79ZM240.21-21.68L240.21-21.68Q240.55-20.95 240.94-20.41L240.94-20.41Q241.09-20.21 241.28-20.07 241.48-19.92 241.58-19.68L241.58-19.68Q241.67-19.58 241.77-19.26 241.87-18.95 241.97-18.8L241.97-18.8Q242.11-18.41 242.55-17.92 242.99-17.43 242.99-17.04L242.99-17.04Q242.99-16.8 242.89-16.5 242.8-16.21 242.75-15.97L242.75-15.97Q242.7-15.67 242.7-15.36 242.7-15.04 242.5-14.79L242.5-14.79Q242.26-14.55 241.97-14.5 241.67-14.45 241.43-14.26L241.43-14.26Q241.33-14.16 241.14-13.92 240.94-13.67 240.75-13.38 240.55-13.09 240.38-12.82 240.21-12.55 240.21-12.4L240.21-12.4Q239.62-12.35 239.45-12.38 239.28-12.4 239.09-12.35L239.09-12.35Q238.84-12.6 238.57-12.77 238.31-12.94 237.91-13.09L237.91-13.09Q237.82-13.48 237.48-13.99 237.13-14.5 236.89-14.84L236.89-14.84 236.55-15.28Q235.81-16.31 235.2-17.26 234.59-18.21 234.3-19.38L234.3-19.38Q235.23-20.07 235.74-20.41 236.25-20.75 236.84-21.04 237.43-21.34 237.99-21.61 238.55-21.88 239.04-22.27L239.04-22.27Q239.43-22.27 239.57-22.22 239.72-22.17 239.77-22.12 239.82-22.07 239.89-21.95 239.97-21.83 240.21-21.68ZM252.8-6.45L253.15-6.4Q253.2-5.91 253.49-5.76 253.78-5.62 254.17-5.71L254.17-5.71Q254.42-5.18 254.59-5.1 254.76-5.03 254.9-4.93L254.9-4.93 255.49-4.64Q255.83-4.44 255.81-4.25 255.78-4.05 255.98-3.91L255.98-3.91Q255.93-3.56 255.78-3.25 255.64-2.93 255.59-2.54L255.59-2.54Q255.2-2 254.93-1.49 254.66-0.98 254.42-0.44L254.42-0.44Q254.32-0.2 254.2 0.1 254.07 0.39 253.93 0.63L253.93 0.63Q253.83 0.78 253.71 0.95 253.59 1.12 253.49 1.32L253.49 1.32Q253.24 1.71 253.02 2.05 252.8 2.39 252.56 2.78L252.56 2.78Q252.17 2.73 252.15 2.95 252.12 3.17 251.88 3.17L251.88 3.17Q251.68 3.42 251.51 3.59 251.34 3.76 251.14 3.96L251.14 3.96Q250.95 3.86 250.83 3.74 250.7 3.61 250.56 3.52L250.56 3.52Q250.46 2.93 250.31 2.88 250.17 2.83 250 2.81 249.83 2.78 249.66 2.69 249.48 2.59 249.29 2.2L249.29 2.2Q249 1.42 248.85 1.27L248.85 1.27Q248.7 1.37 248.7 1.59 248.7 1.81 248.61 1.81L248.61 1.81Q248.51 1.56 248.39 1.39 248.26 1.22 248.26 1.07L248.26 1.07 248.61 0.59Q248.65 0.34 248.61 0.05L248.61 0.05Q249.63-1.42 250.49-2.98 251.34-4.54 252.02-6.15L252.02-6.15Q252.27-6.25 252.41-6.35 252.56-6.45 252.8-6.45L252.8-6.45ZM287.96-13.33L287.96-13.33Q288.05-13.09 288.69-12.28 289.32-11.47 290.13-10.52 290.93-9.57 291.72-8.69 292.5-7.81 292.79-7.42L292.79-7.42Q293.72-6.05 294.69-4.74 295.67-3.42 296.55-2L296.55-2Q296.79-1.76 296.94-1.39 297.09-1.03 297.09-0.63L297.09-0.63Q297.09-0.2 296.87-0.17 296.65-0.15 296.4-0.05L296.4-0.05Q295.91 0.29 295.52 0.34 295.13 0.39 294.89 0.39L294.89 0.39Q294.35 0.39 293.72 0.37 293.08 0.34 292.64 0.44L292.64 0.44Q292.5 0.49 292.3 0.61 292.11 0.73 292.01 0.73L292.01 0.73Q291.62 0.73 291.45 0.61 291.28 0.49 290.98 0.39L290.98 0.39Q290.59-0.05 290.28-0.54 289.96-1.03 289.62-1.51L289.62-1.51Q289.32-1.86 288.98-2.12 288.64-2.39 288.35-2.78L288.35-2.78Q287.57-3.91 286.76-4.93 285.95-5.96 285.12-6.98L285.12-6.98Q284.73-7.52 284.27-8.01 283.81-8.5 283.41-8.98L283.41-8.98Q283.02-9.52 282.68-10.11 282.34-10.69 281.95-11.23L281.95-11.23Q281.66-11.72 281.12-12.43 280.58-13.13 280-13.87 279.41-14.6 278.8-15.26 278.19-15.92 277.75-16.26L277.75-16.26Q277.75-16.6 277.56-16.75 277.36-16.89 277.12-17.09L277.12-17.09Q277.02-17.33 276.87-17.55 276.73-17.77 276.73-18.07L276.73-18.07Q276.73-18.26 276.77-18.41 276.82-18.55 276.87-18.7L276.87-18.7Q276.97-18.9 276.99-19.07 277.02-19.24 277.12-19.43L277.12-19.43Q277.36-20.07 277.82-20.56 278.29-21.04 278.53-21.68L278.53-21.68Q278.58-21.88 278.58-22.05 278.58-22.22 278.68-22.41L278.68-22.41Q278.82-22.71 279.12-23 279.41-23.29 279.66-23.63L279.66-23.63Q279.9-24.07 280.14-24.51 280.39-24.95 280.63-25.39L280.63-25.39Q281.32-26.51 282.15-27.56 282.98-28.61 283.71-29.64L283.71-29.64Q284.39-30.62 284.98-31.57 285.56-32.52 286.25-33.5L286.25-33.5Q286.59-33.98 287.03-34.59 287.47-35.21 287.93-35.79 288.4-36.38 288.88-36.89 289.37-37.4 289.86-37.65L289.86-37.65Q290.69-37.74 290.93-37.38 291.18-37.01 291.62-37.01L291.62-37.01Q292.3-36.87 292.55-36.57 292.79-36.28 293.03-36.04L293.03-36.04Q293.67-36.04 294.11-35.79 294.55-35.55 294.99-35.06L294.99-35.06Q294.79-34.52 294.47-34.08 294.16-33.64 293.91-33.15L293.91-33.15Q293.52-33.01 293.35-32.67 293.18-32.32 292.84-32.08L292.84-32.08Q292.3-31.25 291.76-30.44 291.23-29.64 290.69-28.91L290.69-28.91Q290.45-28.61 290.13-28.44 289.81-28.27 289.62-27.93L289.62-27.93Q289.52-27.78 289.47-27.61 289.42-27.44 289.32-27.29L289.32-27.29Q288.74-26.37 288-25.49 287.27-24.61 286.74-23.63L286.74-23.63Q286.49-23.29 286.34-22.92 286.2-22.56 286-22.22L286-22.22Q285.81-21.92 285.44-21.39 285.07-20.85 284.71-20.29 284.34-19.73 284.07-19.21 283.81-18.7 283.81-18.36L283.81-18.36Q283.85-18.12 284.44-17.38 285.03-16.65 285.73-15.82 286.44-14.99 287.1-14.26 287.76-13.53 287.96-13.33ZM323.01-19.38L323.01-19.38Q322.91-19.19 322.82-19.02 322.72-18.85 322.67-18.65L322.67-18.65Q322.87-18.46 323.04-18.24 323.21-18.02 323.21-17.77L323.21-17.77Q323.21-17.58 323.13-17.41 323.06-17.24 323.11-17.09L323.11-17.09Q322.91-16.75 322.69-16.46 322.47-16.16 322.38-15.82L322.38-15.82Q322.18-15.63 322.06-15.43 321.94-15.23 321.84-15.04L321.84-15.04Q321.6-14.94 321.52-14.72 321.45-14.5 321.25-14.36L321.25-14.36Q321.21-14.16 320.77-13.43 320.33-12.7 319.79-11.87 319.25-11.04 318.76-10.25 318.28-9.47 318.08-9.23L318.08-9.23Q317.98-8.98 317.86-8.84 317.74-8.69 317.59-8.5L317.59-8.5Q317.49-8.35 317.45-8.18 317.4-8.01 317.3-7.91L317.3-7.91Q317.2-7.71 317.08-7.57 316.96-7.42 316.86-7.18L316.86-7.18Q316.37-6.54 315.88-5.66 315.39-4.79 314.96-4.1L314.96-4.1Q314.71-3.71 314.49-3.32 314.27-2.93 314.03-2.54L314.03-2.54Q313.78-2.15 313.54-1.81 313.3-1.46 313.05-1.07L313.05-1.07Q312.66-0.78 312.37-0.37 312.07 0.05 311.68 0.34L311.68 0.34Q311.05 0.34 310.9-0.24L310.9-0.24Q310.27-0.39 310.27-0.24 310.27-0.1 310.27 0L310.27 0Q310.07 0.1 310 0.29 309.93 0.49 309.73 0.59L309.73 0.59Q309.34 0.49 309.07 0.27 308.8 0.05 308.31 0.1L308.31 0.1Q308.12-0.2 307.88-0.42 307.63-0.63 307.44-0.88L307.44-0.88Q307.34-1.17 307.17-1.37 307-1.56 306.85-1.76L306.85-1.76Q306.7-2 306.56-2.2 306.41-2.39 306.26-2.59L306.26-2.59Q305.92-3.03 305.6-3.44 305.29-3.86 305.04-4.3L305.04-4.3Q304.65-4.88 304.29-5.49 303.92-6.1 303.53-6.69L303.53-6.69Q303.33-6.98 303.14-7.28 302.94-7.57 302.8-7.86L302.8-7.86Q302.7-8.11 302.53-8.45 302.36-8.79 302.11-8.89L302.11-8.89Q302.02-9.28 301.77-9.47 301.53-9.67 301.28-9.96L301.28-9.96Q300.94-10.35 300.65-10.82 300.36-11.28 300.06-11.77L300.06-11.77Q299.09-13.13 298.23-14.45 297.38-15.77 296.55-17.19L296.55-17.19Q296.79-17.97 296.79-18.36 296.79-18.75 297.04-18.99L297.04-18.99Q297.04-19.19 297.13-19.58L297.13-19.58Q297.77-20.65 298.35-21.53L298.35-21.53Q298.89-22.36 299.11-22.9 299.33-23.44 299.57-24.02L299.57-24.02Q299.82-24.17 299.97-24.39 300.11-24.61 300.36-24.8L300.36-24.8Q300.45-25.34 300.8-25.71 301.14-26.07 301.23-26.61L301.23-26.61Q301.67-26.95 301.72-27.39L301.72-27.39Q302.36-27.83 302.5-28.56L302.5-28.56Q302.89-28.96 303.16-29.44 303.43-29.93 303.68-30.47L303.68-30.47Q304.26-30.96 304.6-31.74L304.6-31.74Q304.9-31.93 305.04-32.28 305.19-32.62 305.43-32.86L305.43-32.86Q305.82-33.5 306.04-33.91 306.26-34.33 306.51-34.77L306.51-34.77Q306.85-34.77 306.95-35.01 307.05-35.25 307.34-35.21L307.34-35.21Q307.34-35.64 307.58-35.99L307.58-35.99Q307.68-36.04 307.88-36.11 308.07-36.18 308.07-36.28L308.07-36.28Q307.97-36.87 308.12-36.96 308.27-37.06 308.36-37.16L308.36-37.16Q308.9-37.06 309.1-37.01 309.29-36.96 309.73-36.67L309.73-36.67Q310.22-36.67 310.41-36.47 310.61-36.28 310.85-36.18L310.85-36.18Q311.05-35.99 311.17-35.79 311.29-35.6 311.54-35.5L311.54-35.5Q311.93-34.96 312.37-34.33 312.81-33.69 313.2-33.15L313.2-33.15Q313.73-32.42 314.3-31.76 314.86-31.1 315.35-30.32L315.35-30.32Q315.49-30.08 315.88-29.47 316.27-28.86 316.76-28.17 317.25-27.49 317.64-26.93 318.03-26.37 318.18-26.27L318.18-26.27Q318.32-26.03 318.81-25.34 319.3-24.66 319.86-23.9 320.42-23.14 320.96-22.46 321.5-21.78 321.69-21.58L321.69-21.58Q322.23-20.85 322.5-20.39 322.77-19.92 323.01-19.38ZM311.83-10.21L311.83-10.21Q312.37-10.94 312.66-11.52 312.95-12.11 313.25-12.7L313.25-12.7Q313.73-13.28 313.83-13.53 313.93-13.77 314.08-14.01L314.08-14.01Q314.47-14.6 314.88-15.19 315.3-15.77 315.54-16.46L315.54-16.46Q315.83-16.65 315.98-16.94 316.13-17.24 316.42-17.48L316.42-17.48Q316.13-18.51 315.74-19.07 315.35-19.63 314.96-20.17L314.96-20.17Q314.81-20.41 314.66-20.65 314.52-20.9 314.37-21.14L314.37-21.14Q314.17-21.29 314.05-21.44 313.93-21.58 313.78-21.73L313.78-21.73Q313.69-21.97 313.49-22.36L313.49-22.36Q313.3-22.61 313.1-22.8 312.9-23 312.76-23.29L312.76-23.29Q312.56-23.49 312.27-23.83 311.98-24.17 311.66-24.58 311.34-25 311.1-25.37 310.85-25.73 310.71-25.98L310.71-25.98Q310.61-26.22 310.54-26.39 310.46-26.56 310.37-26.76L310.37-26.76Q310.12-27.1 309.88-27.37 309.63-27.64 309.39-27.98L309.39-27.98Q309.24-27.88 309.12-27.86 309-27.83 308.9-27.73L308.9-27.73Q308.56-27.1 308.14-26.56 307.73-26.03 307.34-25.39L307.34-25.39Q307-24.8 306.65-24.19 306.31-23.58 305.97-23L305.97-23Q305.73-22.66 305.51-22.34 305.29-22.02 305.04-21.63L305.04-21.63Q304.8-21.29 304.63-20.92 304.46-20.56 304.21-20.21L304.21-20.21Q303.82-19.73 303.58-19.34 303.33-18.95 303.09-18.41L303.09-18.41Q303.24-18.12 303.55-17.6 303.87-17.09 304.21-16.58 304.55-16.06 304.82-15.63 305.09-15.19 305.14-15.04L305.14-15.04Q305.53-14.7 305.78-14.28 306.02-13.87 306.41-13.48L306.41-13.48Q306.61-13.09 306.85-12.79 307.09-12.5 307.34-12.16L307.34-12.16Q307.58-11.82 307.97-11.16 308.36-10.5 308.75-9.81 309.14-9.13 309.54-8.54 309.93-7.96 310.17-7.81L310.17-7.81Q310.66-8.35 310.98-9.01 311.29-9.67 311.83-10.21ZM326.38 0.59L326.38 0.59Q326.18 0.39 326.18 0.05L326.18 0.05Q326.18-0.2 326.21-0.37 326.23-0.54 326.28-0.78L326.28-0.78Q326.53-1.9 326.53-3.05 326.53-4.2 326.62-5.32L326.62-5.32Q326.67-6.01 326.7-6.69 326.72-7.37 326.72-8.06L326.72-8.06Q326.72-12.11 326.48-16.14 326.23-20.17 326.23-24.27L326.23-24.27Q326.23-27.1 326.33-29.96 326.43-32.81 326.48-35.69L326.48-35.69Q326.92-35.94 327.55-35.89 328.19-35.84 328.58-36.33L328.58-36.33Q328.82-36.38 329.06-36.35 329.31-36.33 329.55-36.33L329.55-36.33Q330.09-36.33 330.58-36.67 331.07-37.01 331.65-37.26L331.65-37.26Q331.94-37.16 332.07-37.18 332.19-37.21 332.34-37.21L332.34-37.21Q332.48-37.21 332.97-36.87 333.46-36.52 334.04-36.08 334.63-35.64 335.14-35.25 335.66-34.86 335.8-34.77L335.8-34.77Q337.02-33.84 337.98-32.74 338.93-31.64 339.86-30.52L339.86-30.52Q340.73-29.39 341.76-28.25 342.78-27.1 343.76-26.12L343.76-26.12Q344.1-25.73 344.47-25.44 344.84-25.15 345.18-24.76L345.18-24.76Q345.32-24.56 345.45-24.34 345.57-24.12 345.71-23.88L345.71-23.88Q346.01-23.54 346.4-23.29 346.79-23.05 347.13-22.71L347.13-22.71Q347.37-22.51 347.86-21.92 348.35-21.34 348.35-21.04L348.35-21.04Q348.35-20.85 348.25-20.7 348.16-20.56 348.06-20.36L348.06-20.36Q348.01-20.21 348.01-19.92 348.01-19.63 347.96-19.53L347.96-19.53Q347.47-19.14 347.42-19.04 347.37-18.95 347.28-18.85L347.28-18.85Q347.13-18.65 346.91-18.53 346.69-18.41 346.59-18.16L346.59-18.16Q346.5-18.02 346.52-17.87 346.54-17.72 346.45-17.53L346.45-17.53Q346.2-16.99 345.67-16.5 345.13-16.02 344.74-15.43L344.74-15.43Q344.2-14.55 343.66-13.67 343.13-12.79 342.44-11.96L342.44-11.96Q342.15-11.57 341.83-11.21 341.52-10.84 341.22-10.45L341.22-10.45Q340.98-10.16 340.78-9.84 340.59-9.52 340.34-9.13L340.34-9.13Q339.81-8.45 339.32-7.79 338.83-7.13 338.29-6.45L338.29-6.45Q337.71-5.62 337.02-4.81 336.34-4 335.8-3.17L335.8-3.17Q335.27-2.29 334.68-1.56 334.09-0.83 333.41-0.15L333.41-0.15Q333.21 0 332.92 0.29 332.63 0.59 332.34 0.59L332.34 0.59Q332.14 0.59 332.02 0.44 331.9 0.29 331.65 0.29L331.65 0.29Q331.6 0.29 331.36 0.34 331.11 0.39 330.77 0.44L330.77 0.44 329.89 0.54Q329.11 0.93 328.77 0.9 328.43 0.88 328.09 0.93L328.09 0.93Q327.89 0.98 327.77 1.07 327.65 1.17 327.5 1.17L327.5 1.17Q327.16 1.17 326.96 0.85 326.77 0.54 326.38 0.59ZM341.03-20.51L341.03-20.51Q341.03-20.75 340.56-21.19 340.1-21.63 339.86-21.83L339.86-21.83Q339.51-22.12 339.05-22.39 338.59-22.66 338.29-23L338.29-23Q338.05-23.29 337.83-23.61 337.61-23.93 337.36-24.22L337.36-24.22Q336.49-25.2 335.58-26.17 334.68-27.15 334-28.32L334-28.32Q333.56-28.61 333.17-29 332.78-29.39 332.24-29.64L332.24-29.64Q332.14-29.35 332.16-29.03 332.19-28.71 332.19-28.42L332.19-28.42Q332.19-27.29 332.09-26.22 331.99-25.15 331.99-24.07L331.99-24.07Q331.99-21.44 332.12-18.87 332.24-16.31 332.24-13.72L332.24-13.72Q332.24-12.74 332.26-11.77 332.29-10.79 332.43-9.81L332.43-9.81Q332.34-9.52 332.34-9.28L332.34-9.28Q332.34-9.03 332.43-8.64L332.43-8.64Q332.82-8.89 333.09-9.25 333.36-9.62 333.61-9.96L333.61-9.96Q334.44-11.04 335.24-12.13 336.05-13.23 336.88-14.36L336.88-14.36Q337.41-15.09 337.98-15.8 338.54-16.5 339.07-17.29L339.07-17.29Q339.22-17.48 339.54-17.97 339.86-18.46 340.17-18.97 340.49-19.48 340.76-19.92 341.03-20.36 341.03-20.51ZM358.26-12.79L358.26-12.79Q358.36-12.55 358.97-11.77 359.58-10.99 360.36-10.06 361.14-9.13 361.85-8.28 362.56-7.42 362.85-7.03L362.85-7.03Q363.39-6.35 363.9-5.69 364.41-5.03 364.85-4.3L364.85-4.3 365.73-2.83Q366.12-2.34 366.44-2 366.76-1.66 366.95-1.07L366.95-1.07Q367.05-0.68 367.05-0.54L367.05-0.54Q367.05-0.2 366.81-0.05L366.81-0.05Q366.42-0.05 366.39 0.07 366.37 0.2 366.17 0.29L366.17 0.29Q365.98 0.39 365.56 0.42 365.15 0.44 364.9 0.44L364.9 0.44Q364.46 0.44 363.8 0.42 363.14 0.39 362.75 0.54L362.75 0.54Q362.66 0.59 362.46 0.68 362.26 0.78 362.17 0.78L362.17 0.78Q361.78 0.78 361.61 0.66 361.43 0.54 361.14 0.49L361.14 0.49Q360.75 0.05 360.48-0.42 360.21-0.88 359.87-1.37L359.87-1.37Q359.53-1.71 359.19-1.98 358.85-2.25 358.6-2.59L358.6-2.59Q357.87-3.66 357.09-4.69 356.31-5.71 355.48-6.69L355.48-6.69Q355.09-7.23 354.65-7.67 354.21-8.11 353.82-8.64L353.82-8.64Q353.43-9.13 353.09-9.69 352.74-10.25 352.4-10.79L352.4-10.79Q352.11-11.23 351.62-11.94 351.13-12.65 350.55-13.35 349.96-14.06 349.37-14.7 348.79-15.33 348.4-15.67L348.4-15.67Q348.35-15.97 348.15-16.14 347.96-16.31 347.71-16.46L347.71-16.46Q347.62-16.7 347.49-16.92 347.37-17.14 347.37-17.38L347.37-17.38Q347.37-17.72 347.52-18.02L347.52-18.02Q347.62-18.21 347.64-18.38 347.67-18.55 347.76-18.75L347.76-18.75Q348.01-19.29 348.42-19.8 348.84-20.31 349.08-20.9L349.08-20.9Q349.18-21.04 349.18-21.22 349.18-21.39 349.28-21.53L349.28-21.53Q349.37-21.92 349.69-22.19 350.01-22.46 350.2-22.8L350.2-22.8Q350.45-23.19 350.67-23.61 350.89-24.02 351.13-24.51L351.13-24.51Q351.86-25.73 352.67-26.88 353.48-28.03 354.31-29.2L354.31-29.2Q354.94-30.18 355.55-31.08 356.16-31.98 356.8-32.91L356.8-32.91Q357.14-33.35 357.53-33.94 357.92-34.52 358.38-35.11 358.85-35.69 359.34-36.18 359.82-36.67 360.31-36.96L360.31-36.96Q361.04-37.01 361.29-36.65 361.53-36.28 362.02-36.28L362.02-36.28Q362.66-36.13 362.85-35.89 363.05-35.64 363.29-35.4L363.29-35.4Q363.97-35.4 364.39-35.16 364.8-34.91 365.19-34.42L365.19-34.42Q365.05-33.89 364.75-33.47 364.46-33.06 364.22-32.62L364.22-32.62Q363.83-32.42 363.66-32.08 363.49-31.74 363.14-31.54L363.14-31.54Q362.66-30.71 362.12-29.96 361.58-29.2 361.04-28.47L361.04-28.47Q360.75-28.03 360.43-27.69 360.12-27.34 359.87-26.95L359.87-26.95Q359.77-26.81 359.7-26.64 359.63-26.46 359.53-26.32L359.53-26.32Q358.94-25.39 358.26-24.58 357.58-23.78 356.99-22.8L356.99-22.8Q356.8-22.46 356.67-22.09 356.55-21.73 356.36-21.39L356.36-21.39Q356.16-21.09 355.79-20.61 355.43-20.12 355.09-19.56 354.75-18.99 354.48-18.48 354.21-17.97 354.21-17.63L354.21-17.63Q354.26-17.38 354.82-16.67 355.38-15.97 356.09-15.16 356.8-14.36 357.43-13.65 358.07-12.94 358.26-12.79ZM361.48-21.68L361.48-21.68Q361.83-20.95 362.22-20.41L362.22-20.41Q362.36-20.21 362.56-20.07 362.75-19.92 362.85-19.68L362.85-19.68Q362.95-19.58 363.05-19.26 363.14-18.95 363.24-18.8L363.24-18.8Q363.39-18.41 363.83-17.92 364.27-17.43 364.27-17.04L364.27-17.04Q364.27-16.8 364.17-16.5 364.07-16.21 364.02-15.97L364.02-15.97Q363.97-15.67 363.97-15.36 363.97-15.04 363.78-14.79L363.78-14.79Q363.53-14.55 363.24-14.5 362.95-14.45 362.7-14.26L362.7-14.26Q362.61-14.16 362.41-13.92 362.22-13.67 362.02-13.38 361.83-13.09 361.65-12.82 361.48-12.55 361.48-12.4L361.48-12.4Q360.9-12.35 360.73-12.38 360.56-12.4 360.36-12.35L360.36-12.35Q360.12-12.6 359.85-12.77 359.58-12.94 359.19-13.09L359.19-13.09Q359.09-13.48 358.75-13.99 358.41-14.5 358.16-14.84L358.16-14.84 357.82-15.28Q357.09-16.31 356.48-17.26 355.87-18.21 355.58-19.38L355.58-19.38Q356.5-20.07 357.02-20.41 357.53-20.75 358.11-21.04 358.7-21.34 359.26-21.61 359.82-21.88 360.31-22.27L360.31-22.27Q360.7-22.27 360.85-22.22 361-22.17 361.04-22.12 361.09-22.07 361.17-21.95 361.24-21.83 361.48-21.68ZM410.99-19.38L410.99-19.38Q410.89-19.19 410.79-19.02 410.7-18.85 410.65-18.65L410.65-18.65Q410.84-18.46 411.01-18.24 411.19-18.02 411.19-17.77L411.19-17.77Q411.19-17.58 411.11-17.41 411.04-17.24 411.09-17.09L411.09-17.09Q410.89-16.75 410.67-16.46 410.45-16.16 410.36-15.82L410.36-15.82Q410.16-15.63 410.04-15.43 409.92-15.23 409.82-15.04L409.82-15.04Q409.57-14.94 409.5-14.72 409.43-14.5 409.23-14.36L409.23-14.36Q409.18-14.16 408.74-13.43 408.3-12.7 407.77-11.87 407.23-11.04 406.74-10.25 406.25-9.47 406.06-9.23L406.06-9.23Q405.96-8.98 405.84-8.84 405.72-8.69 405.57-8.5L405.57-8.5Q405.47-8.35 405.42-8.18 405.37-8.01 405.28-7.91L405.28-7.91Q405.18-7.71 405.06-7.57 404.94-7.42 404.84-7.18L404.84-7.18Q404.35-6.54 403.86-5.66 403.37-4.79 402.93-4.1L402.93-4.1Q402.69-3.71 402.47-3.32 402.25-2.93 402.01-2.54L402.01-2.54Q401.76-2.15 401.52-1.81 401.27-1.46 401.03-1.07L401.03-1.07Q400.64-0.78 400.35-0.37 400.05 0.05 399.66 0.34L399.66 0.34Q399.03 0.34 398.88-0.24L398.88-0.24Q398.25-0.39 398.25-0.24 398.25-0.1 398.25 0L398.25 0Q398.05 0.1 397.98 0.29 397.9 0.49 397.71 0.59L397.71 0.59Q397.32 0.49 397.05 0.27 396.78 0.05 396.29 0.1L396.29 0.1Q396.1-0.2 395.85-0.42 395.61-0.63 395.41-0.88L395.41-0.88Q395.32-1.17 395.15-1.37 394.97-1.56 394.83-1.76L394.83-1.76Q394.68-2 394.54-2.2 394.39-2.39 394.24-2.59L394.24-2.59Q393.9-3.03 393.58-3.44 393.27-3.86 393.02-4.3L393.02-4.3Q392.63-4.88 392.26-5.49 391.9-6.1 391.51-6.69L391.51-6.69Q391.31-6.98 391.12-7.28 390.92-7.57 390.78-7.86L390.78-7.86Q390.68-8.11 390.51-8.45 390.34-8.79 390.09-8.89L390.09-8.89Q389.99-9.28 389.75-9.47 389.51-9.67 389.26-9.96L389.26-9.96Q388.92-10.35 388.63-10.82 388.33-11.28 388.04-11.77L388.04-11.77Q387.06-13.13 386.21-14.45 385.36-15.77 384.53-17.19L384.53-17.19Q384.77-17.97 384.77-18.36 384.77-18.75 385.01-18.99L385.01-18.99Q385.01-19.19 385.11-19.58L385.11-19.58Q385.75-20.65 386.33-21.53L386.33-21.53Q386.87-22.36 387.09-22.9 387.31-23.44 387.55-24.02L387.55-24.02Q387.8-24.17 387.94-24.39 388.09-24.61 388.33-24.8L388.33-24.8Q388.43-25.34 388.77-25.71 389.12-26.07 389.21-26.61L389.21-26.61Q389.65-26.95 389.7-27.39L389.7-27.39Q390.34-27.83 390.48-28.56L390.48-28.56Q390.87-28.96 391.14-29.44 391.41-29.93 391.65-30.47L391.65-30.47Q392.24-30.96 392.58-31.74L392.58-31.74Q392.87-31.93 393.02-32.28 393.17-32.62 393.41-32.86L393.41-32.86Q393.8-33.5 394.02-33.91 394.24-34.33 394.49-34.77L394.49-34.77Q394.83-34.77 394.93-35.01 395.02-35.25 395.32-35.21L395.32-35.21Q395.32-35.64 395.56-35.99L395.56-35.99Q395.66-36.04 395.85-36.11 396.05-36.18 396.05-36.28L396.05-36.28Q395.95-36.87 396.1-36.96 396.24-37.06 396.34-37.16L396.34-37.16Q396.88-37.06 397.07-37.01 397.27-36.96 397.71-36.67L397.71-36.67Q398.2-36.67 398.39-36.47 398.59-36.28 398.83-36.18L398.83-36.18Q399.03-35.99 399.15-35.79 399.27-35.6 399.52-35.5L399.52-35.5Q399.91-34.96 400.35-34.33 400.79-33.69 401.18-33.15L401.18-33.15Q401.71-32.42 402.27-31.76 402.84-31.1 403.32-30.32L403.32-30.32Q403.47-30.08 403.86-29.47 404.25-28.86 404.74-28.17 405.23-27.49 405.62-26.93 406.01-26.37 406.16-26.27L406.16-26.27Q406.3-26.03 406.79-25.34 407.28-24.66 407.84-23.9 408.4-23.14 408.94-22.46 409.48-21.78 409.67-21.58L409.67-21.58Q410.21-20.85 410.48-20.39 410.75-19.92 410.99-19.38ZM399.81-10.21L399.81-10.21Q400.35-10.94 400.64-11.52 400.93-12.11 401.22-12.7L401.22-12.7Q401.71-13.28 401.81-13.53 401.91-13.77 402.05-14.01L402.05-14.01Q402.45-14.6 402.86-15.19 403.28-15.77 403.52-16.46L403.52-16.46Q403.81-16.65 403.96-16.94 404.11-17.24 404.4-17.48L404.4-17.48Q404.11-18.51 403.71-19.07 403.32-19.63 402.93-20.17L402.93-20.17Q402.79-20.41 402.64-20.65 402.49-20.9 402.35-21.14L402.35-21.14Q402.15-21.29 402.03-21.44 401.91-21.58 401.76-21.73L401.76-21.73Q401.66-21.97 401.47-22.36L401.47-22.36Q401.27-22.61 401.08-22.8 400.88-23 400.74-23.29L400.74-23.29Q400.54-23.49 400.25-23.83 399.96-24.17 399.64-24.58 399.32-25 399.08-25.37 398.83-25.73 398.69-25.98L398.69-25.98Q398.59-26.22 398.51-26.39 398.44-26.56 398.34-26.76L398.34-26.76Q398.1-27.1 397.86-27.37 397.61-27.64 397.37-27.98L397.37-27.98Q397.22-27.88 397.1-27.86 396.98-27.83 396.88-27.73L396.88-27.73Q396.54-27.1 396.12-26.56 395.71-26.03 395.32-25.39L395.32-25.39Q394.97-24.8 394.63-24.19 394.29-23.58 393.95-23L393.95-23Q393.71-22.66 393.49-22.34 393.27-22.02 393.02-21.63L393.02-21.63Q392.78-21.29 392.61-20.92 392.44-20.56 392.19-20.21L392.19-20.21Q391.8-19.73 391.56-19.34 391.31-18.95 391.07-18.41L391.07-18.41Q391.21-18.12 391.53-17.6 391.85-17.09 392.19-16.58 392.53-16.06 392.8-15.63 393.07-15.19 393.12-15.04L393.12-15.04Q393.51-14.7 393.75-14.28 394-13.87 394.39-13.48L394.39-13.48Q394.58-13.09 394.83-12.79 395.07-12.5 395.32-12.16L395.32-12.16Q395.56-11.82 395.95-11.16 396.34-10.5 396.73-9.81 397.12-9.13 397.51-8.54 397.9-7.96 398.15-7.81L398.15-7.81Q398.64-8.35 398.95-9.01 399.27-9.67 399.81-10.21ZM430.18-36.43L430.18-36.43Q430.96-36.52 431.37-36.3 431.79-36.08 432.23-36.04L432.23-36.04Q432.47-35.99 432.74-36.01 433.01-36.04 433.3-36.04L433.3-36.04Q433.94-36.04 434.3-35.89 434.67-35.74 435.06-35.25L435.06-35.25Q435.16-35.16 435.33-34.99 435.5-34.81 435.5-34.67L435.5-34.67Q435.5-34.28 435.3-33.98 435.11-33.69 435.11-33.15L435.11-33.15Q435.11-32.32 435.3-31.52 435.5-30.71 435.55-29.88L435.55-29.88Q435.79-26.86 435.82-23.8 435.84-20.75 435.84-17.77L435.84-17.77Q435.84-17.38 435.82-17.07 435.79-16.75 435.6-16.5L435.6-16.5 435.6-15.87Q435.55-14.6 435.65-13.31 435.74-12.01 435.74-10.74L435.74-10.74Q435.74-9.62 435.62-8.5 435.5-7.37 435.5-6.2L435.5-6.2Q435.5-5.13 435.65-4.1 435.79-3.08 435.79-2L435.79-2Q435.55-1.56 435.5-1.32 435.45-1.07 435.3-0.88L435.3-0.88Q435.16-0.78 434.99-0.83 434.82-0.88 434.72-0.73L434.72-0.73Q434.47-0.44 434.38-0.05 434.28 0.34 433.89 0.59L433.89 0.59Q433.79 1.27 433.38 1.64 432.96 2 432.77 2.59L432.77 2.59Q432.18 2.64 431.96 2.54 431.74 2.44 431.5 2.34L431.5 2.34Q431.45 1.51 431.52 1.15 431.59 0.78 431.59 0.39L431.59 0.39Q431.59-0.1 431.35-0.34 431.1-0.59 431.01-0.98L431.01-0.98Q430.47-1.32 430.27-1.44 430.08-1.56 429.93-1.76L429.93-1.76Q429.64-2.15 429.44-2.59 429.25-3.03 429.01-3.42L429.01-3.42Q428.32-4.54 427.61-5.71 426.91-6.88 426.08-8.01L426.08-8.01Q425.93-8.25 425.73-8.45 425.54-8.64 425.39-8.89L425.39-8.89Q424.56-10.21 423.83-11.57 423.1-12.94 422.12-14.16L422.12-14.16Q421.73-14.65 421.53-15.26 421.34-15.87 420.95-16.31L420.95-16.31Q420.9-16.06 420.9-15.77 420.9-15.48 420.9-15.23L420.9-15.23Q420.9-13.57 420.97-11.94 421.05-10.3 421.05-8.64L421.05-8.64Q421.05-8.3 420.97-8.03 420.9-7.76 420.9-7.42L420.9-7.42Q420.9-6.93 420.95-6.49 421-6.05 421-5.62L421-5.62Q421-5.08 420.97-4.59 420.95-4.1 420.9-3.61L420.9-3.61Q420.8-2.98 420.66-2.42 420.51-1.86 420.51-1.27L420.51-1.27Q420.51-0.93 420.58-0.63 420.66-0.34 420.66-0.1L420.66-0.1Q420.31 0.44 419.8 0.44 419.29 0.44 418.95 0.83L418.95 0.83Q418.65 0.78 418.48 0.88 418.31 0.98 418.17 0.98L418.17 0.98Q417.97 0.98 417.85 0.93 417.73 0.88 417.58 0.88L417.58 0.88Q417.34 0.88 417.09 1.12 416.85 1.37 416.6 1.37L416.6 1.37Q416.46 1.37 416.09 1.17 415.72 0.98 415.31 0.71 414.89 0.44 414.55 0.17 414.21-0.1 414.21-0.24L414.21-0.24Q414.16-0.49 414.16-0.93L414.16-0.93Q414.16-1.51 414.23-2.08 414.31-2.64 414.41-3.22L414.41-3.22Q414.55-4.88 414.55-6.52 414.55-8.15 414.55-9.81L414.55-9.81Q414.55-10.5 414.58-11.18 414.6-11.87 414.6-12.55L414.6-12.55Q414.6-14.16 414.48-15.8 414.36-17.43 414.36-19.04L414.36-19.04Q414.36-20.17 414.45-21.26 414.55-22.36 414.55-23.44L414.55-23.44Q414.55-24.27 414.5-25.05 414.45-25.83 414.45-26.66L414.45-26.66Q414.41-27.2 414.45-27.81 414.5-28.42 414.5-28.96L414.5-28.96Q414.5-29.59 414.33-30.15 414.16-30.71 414.16-31.2L414.16-31.2Q414.16-31.49 414.28-31.76 414.41-32.03 414.41-32.32L414.41-32.32Q414.41-32.71 414.28-33.11 414.16-33.5 414.16-33.89L414.16-33.89Q414.16-34.28 414.26-34.62 414.36-34.96 414.36-35.35L414.36-35.35Q415.04-35.69 415.58-35.69L415.58-35.69Q416.11-35.69 416.36-35.3L416.36-35.3Q416.36-34.42 416.46-33.96 416.55-33.5 416.6-33.01L416.6-33.01Q416.6-32.71 416.58-32.32 416.55-31.93 416.6-31.57 416.65-31.2 416.82-30.96 416.99-30.71 417.43-30.71L417.43-30.71Q417.53-30.47 417.68-30.27 417.82-30.08 417.87-29.79L417.87-29.79Q418.17-29.98 418.21-30.32 418.26-30.66 418.21-30.96L418.21-30.96Q418.46-30.86 418.65-30.88 418.85-30.91 419.04-30.81L419.04-30.81Q419.14-30.13 419.29-29.61 419.43-29.1 419.39-28.42L419.39-28.42Q420.36-27.69 421.07-26.34 421.78-25 422.41-23.93L422.41-23.93Q422.76-23.39 423.22-22.92 423.68-22.46 423.93-21.83L423.93-21.83Q424.32-21.58 424.56-21.19 424.81-20.8 425-20.41L425-20.41Q425.98-18.7 427.15-17.09 428.32-15.48 429.59-13.92L429.59-13.92Q429.64-14.26 429.64-14.58 429.64-14.89 429.64-15.23L429.64-15.23 429.59-19.63Q429.59-20.02 429.57-20.36 429.54-20.7 429.49-21.09L429.49-21.09Q429.4-22.36 429.44-23.58 429.49-24.8 429.44-26.07L429.44-26.07Q429.35-27.39 429.32-28.76 429.3-30.13 429.2-31.49L429.2-31.49Q429.15-32.32 429.1-33.15 429.05-33.98 429.05-34.81L429.05-34.81Q429.05-35.84 429.25-36.67L429.25-36.67Q429.35-36.77 429.47-36.84 429.59-36.91 429.79-36.91L429.79-36.91Q430.08-36.91 430.18-36.43ZM449.8-13.33L449.8-13.33Q449.9-13.09 450.54-12.28 451.17-11.47 451.98-10.52 452.78-9.57 453.56-8.69 454.34-7.81 454.64-7.42L454.64-7.42Q455.57-6.05 456.54-4.74 457.52-3.42 458.4-2L458.4-2Q458.64-1.76 458.79-1.39 458.93-1.03 458.93-0.63L458.93-0.63Q458.93-0.2 458.71-0.17 458.49-0.15 458.25-0.05L458.25-0.05Q457.76 0.29 457.37 0.34 456.98 0.39 456.74 0.39L456.74 0.39Q456.2 0.39 455.57 0.37 454.93 0.34 454.49 0.44L454.49 0.44Q454.34 0.49 454.15 0.61 453.95 0.73 453.86 0.73L453.86 0.73Q453.47 0.73 453.29 0.61 453.12 0.49 452.83 0.39L452.83 0.39Q452.44-0.05 452.12-0.54 451.81-1.03 451.46-1.51L451.46-1.51Q451.17-1.86 450.83-2.12 450.49-2.39 450.19-2.78L450.19-2.78Q449.41-3.91 448.61-4.93 447.8-5.96 446.97-6.98L446.97-6.98Q446.58-7.52 446.12-8.01 445.65-8.5 445.26-8.98L445.26-8.98Q444.87-9.52 444.53-10.11 444.19-10.69 443.8-11.23L443.8-11.23Q443.5-11.72 442.97-12.43 442.43-13.13 441.84-13.87 441.26-14.6 440.65-15.26 440.04-15.92 439.6-16.26L439.6-16.26Q439.6-16.6 439.4-16.75 439.21-16.89 438.96-17.09L438.96-17.09Q438.87-17.33 438.72-17.55 438.57-17.77 438.57-18.07L438.57-18.07Q438.57-18.26 438.62-18.41 438.67-18.55 438.72-18.7L438.72-18.7Q438.82-18.9 438.84-19.07 438.87-19.24 438.96-19.43L438.96-19.43Q439.21-20.07 439.67-20.56 440.14-21.04 440.38-21.68L440.38-21.68Q440.43-21.88 440.43-22.05 440.43-22.22 440.53-22.41L440.53-22.41Q440.67-22.71 440.97-23 441.26-23.29 441.5-23.63L441.5-23.63Q441.75-24.07 441.99-24.51 442.24-24.95 442.48-25.39L442.48-25.39Q443.16-26.51 443.99-27.56 444.82-28.61 445.56-29.64L445.56-29.64Q446.24-30.62 446.83-31.57 447.41-32.52 448.09-33.5L448.09-33.5Q448.44-33.98 448.88-34.59 449.32-35.21 449.78-35.79 450.24-36.38 450.73-36.89 451.22-37.4 451.71-37.65L451.71-37.65Q452.54-37.74 452.78-37.38 453.03-37.01 453.47-37.01L453.47-37.01Q454.15-36.87 454.39-36.57 454.64-36.28 454.88-36.04L454.88-36.04Q455.52-36.04 455.96-35.79 456.4-35.55 456.83-35.06L456.83-35.06Q456.64-34.52 456.32-34.08 456-33.64 455.76-33.15L455.76-33.15Q455.37-33.01 455.2-32.67 455.03-32.32 454.69-32.08L454.69-32.08Q454.15-31.25 453.61-30.44 453.08-29.64 452.54-28.91L452.54-28.91Q452.29-28.61 451.98-28.44 451.66-28.27 451.46-27.93L451.46-27.93Q451.37-27.78 451.32-27.61 451.27-27.44 451.17-27.29L451.17-27.29Q450.58-26.37 449.85-25.49 449.12-24.61 448.58-23.63L448.58-23.63Q448.34-23.29 448.19-22.92 448.05-22.56 447.85-22.22L447.85-22.22Q447.66-21.92 447.29-21.39 446.92-20.85 446.56-20.29 446.19-19.73 445.92-19.21 445.65-18.7 445.65-18.36L445.65-18.36Q445.7-18.12 446.29-17.38 446.87-16.65 447.58-15.82 448.29-14.99 448.95-14.26 449.61-13.53 449.8-13.33ZM468.55-12.79L468.55-12.79Q468.65-12.55 469.26-11.77 469.87-10.99 470.65-10.06 471.43-9.13 472.14-8.28 472.85-7.42 473.14-7.03L473.14-7.03Q473.68-6.35 474.19-5.69 474.7-5.03 475.14-4.3L475.14-4.3 476.02-2.83Q476.41-2.34 476.73-2 477.05-1.66 477.24-1.07L477.24-1.07Q477.34-0.68 477.34-0.54L477.34-0.54Q477.34-0.2 477.1-0.05L477.1-0.05Q476.71-0.05 476.68 0.07 476.66 0.2 476.46 0.29L476.46 0.29Q476.27 0.39 475.85 0.42 475.44 0.44 475.19 0.44L475.19 0.44Q474.75 0.44 474.09 0.42 473.43 0.39 473.04 0.54L473.04 0.54Q472.95 0.59 472.75 0.68 472.55 0.78 472.46 0.78L472.46 0.78Q472.07 0.78 471.9 0.66 471.72 0.54 471.43 0.49L471.43 0.49Q471.04 0.05 470.77-0.42 470.5-0.88 470.16-1.37L470.16-1.37Q469.82-1.71 469.48-1.98 469.14-2.25 468.89-2.59L468.89-2.59Q468.16-3.66 467.38-4.69 466.6-5.71 465.77-6.69L465.77-6.69Q465.38-7.23 464.94-7.67 464.5-8.11 464.11-8.64L464.11-8.64Q463.72-9.13 463.38-9.69 463.03-10.25 462.69-10.79L462.69-10.79Q462.4-11.23 461.91-11.94 461.42-12.65 460.84-13.35 460.25-14.06 459.66-14.7 459.08-15.33 458.69-15.67L458.69-15.67Q458.64-15.97 458.44-16.14 458.25-16.31 458-16.46L458-16.46Q457.91-16.7 457.78-16.92 457.66-17.14 457.66-17.38L457.66-17.38Q457.66-17.72 457.81-18.02L457.81-18.02Q457.91-18.21 457.93-18.38 457.96-18.55 458.05-18.75L458.05-18.75Q458.3-19.29 458.71-19.8 459.13-20.31 459.37-20.9L459.37-20.9Q459.47-21.04 459.47-21.22 459.47-21.39 459.57-21.53L459.57-21.53Q459.66-21.92 459.98-22.19 460.3-22.46 460.49-22.8L460.49-22.8Q460.74-23.19 460.96-23.61 461.18-24.02 461.42-24.51L461.42-24.51Q462.15-25.73 462.96-26.88 463.77-28.03 464.6-29.2L464.6-29.2Q465.23-30.18 465.84-31.08 466.45-31.98 467.09-32.91L467.09-32.91Q467.43-33.35 467.82-33.94 468.21-34.52 468.67-35.11 469.14-35.69 469.63-36.18 470.11-36.67 470.6-36.96L470.6-36.96Q471.33-37.01 471.58-36.65 471.82-36.28 472.31-36.28L472.31-36.28Q472.95-36.13 473.14-35.89 473.34-35.64 473.58-35.4L473.58-35.4Q474.26-35.4 474.68-35.16 475.09-34.91 475.48-34.42L475.48-34.42Q475.34-33.89 475.05-33.47 474.75-33.06 474.51-32.62L474.51-32.62Q474.12-32.42 473.95-32.08 473.78-31.74 473.43-31.54L473.43-31.54Q472.95-30.71 472.41-29.96 471.87-29.2 471.33-28.47L471.33-28.47Q471.04-28.03 470.72-27.69 470.41-27.34 470.16-26.95L470.16-26.95Q470.06-26.81 469.99-26.64 469.92-26.46 469.82-26.32L469.82-26.32Q469.23-25.39 468.55-24.58 467.87-23.78 467.28-22.8L467.28-22.8Q467.09-22.46 466.96-22.09 466.84-21.73 466.65-21.39L466.65-21.39Q466.45-21.09 466.09-20.61 465.72-20.12 465.38-19.56 465.04-18.99 464.77-18.48 464.5-17.97 464.5-17.63L464.5-17.63Q464.55-17.38 465.11-16.67 465.67-15.97 466.38-15.16 467.09-14.36 467.72-13.65 468.36-12.94 468.55-12.79ZM471.77-21.68L471.77-21.68Q472.12-20.95 472.51-20.41L472.51-20.41Q472.65-20.21 472.85-20.07 473.04-19.92 473.14-19.68L473.14-19.68Q473.24-19.58 473.34-19.26 473.43-18.95 473.53-18.8L473.53-18.8Q473.68-18.41 474.12-17.92 474.56-17.43 474.56-17.04L474.56-17.04Q474.56-16.8 474.46-16.5 474.36-16.21 474.31-15.97L474.31-15.97Q474.26-15.67 474.26-15.36 474.26-15.04 474.07-14.79L474.07-14.79Q473.82-14.55 473.53-14.5 473.24-14.45 472.99-14.26L472.99-14.26Q472.9-14.16 472.7-13.92 472.51-13.67 472.31-13.38 472.12-13.09 471.94-12.82 471.77-12.55 471.77-12.4L471.77-12.4Q471.19-12.35 471.02-12.38 470.85-12.4 470.65-12.35L470.65-12.35Q470.41-12.6 470.14-12.77 469.87-12.94 469.48-13.09L469.48-13.09Q469.38-13.48 469.04-13.99 468.7-14.5 468.45-14.84L468.45-14.84 468.11-15.28Q467.38-16.31 466.77-17.26 466.16-18.21 465.87-19.38L465.87-19.38Q466.79-20.07 467.31-20.41 467.82-20.75 468.4-21.04 468.99-21.34 469.55-21.61 470.11-21.88 470.6-22.27L470.6-22.27Q470.99-22.27 471.14-22.22 471.29-22.17 471.33-22.12 471.38-22.07 471.46-21.95 471.53-21.83 471.77-21.68Z" opacity="1" transform="matrix(1,0,0,1,0,0)" fill="#000000" class="undefined-text-1" data-fill-palette-color="secondary" id="text-1"></path></svg></g></svg></g></svg></g></svg></g><g transform="matrix(1,0,0,1,0,0.40824926504980397)"><svg viewBox="0 0 125.31728303390486 163.2997060199239" height="163.2997060199239" width="125.31728303390486"><g><svg xmlns="http://www.w3.org/2000/svg" xmlns:xlink="http://www.w3.org/1999/xlink" version="1.1" x="0" y="0" viewBox="19.060993194580078 9.684999465942383 61.87600326538086 80.6300048828125" enable-background="new 0 0 100 100" xml:space="preserve" height="163.2997060199239" width="125.31728303390486" class="icon-icon-0" data-fill-palette-color="accent" id="icon-0"><path fill="#000000" d="M79.062 14.373h1.875c0-2.585-2.102-4.688-4.688-4.688v0.002h-52.5c-2.585 0-4.688 2.102-4.688 4.688v71.252c0 2.585 2.102 4.688 4.688 4.688v-0.002h52.5c2.585 0 4.686-2.102 4.688-4.686l0 0V14.375h-1.875v71.25c0 1.551-1.262 2.812-2.812 2.812h-52.5v0.002c-1.551 0-2.812-1.262-2.812-2.812V14.375c0-1.551 1.262-2.812 2.812-2.812h52.5v-0.002C77.801 11.561 79.062 12.822 79.062 14.373z" data-fill-palette-color="accent"></path><path fill="#000000" d="M77.188 74.785V20c0-0.518-0.419-0.938-0.938-0.938h-52.5c-0.518 0-0.938 0.419-0.938 0.938v54.785c0 0.518 0.419 0.938 0.938 0.938h52.5C76.768 75.723 77.188 75.303 77.188 74.785zM75.312 73.848H24.688v-52.91h50.625V73.848z" data-fill-palette-color="accent"></path><path fill="#000000" d="M45.312 81.875c0 2.585 2.102 4.688 4.688 4.688s4.688-2.102 4.688-4.688S52.585 77.188 50 77.188 45.312 79.29 45.312 81.875zM52.812 81.875c0 1.551-1.262 2.812-2.812 2.812s-2.812-1.262-2.812-2.812 1.262-2.812 2.812-2.812S52.812 80.324 52.812 81.875z" data-fill-palette-color="accent"></path><path fill="#000000" d="M53.75 17.188c0.518 0 0.938-0.419 0.938-0.938s-0.419-0.938-0.938-0.938h-7.5c-0.518 0-0.938 0.419-0.938 0.938s0.419 0.938 0.938 0.938H53.75z" data-fill-palette-color="accent"></path><path fill="#000000" d="M50 65.938c3.618 0 6.562-2.944 6.562-6.562 0-0.518-0.419-0.938-0.938-0.938s-0.938 0.419-0.938 0.938c0 2.585-2.102 4.688-4.688 4.688s-4.688-2.102-4.688-4.688c0-0.518-0.419-0.938-0.938-0.938s-0.938 0.419-0.938 0.938C43.438 62.993 46.382 65.938 50 65.938z" data-fill-palette-color="accent"></path><path fill="#000000" d="M38.75 54.688h3.75c0.518 0 0.938-0.419 0.938-0.938s-0.419-0.938-0.938-0.938h-3.75c-0.518 0-0.938 0.419-0.938 0.938S38.232 54.688 38.75 54.688z" data-fill-palette-color="accent"></path><path fill="#000000" d="M57.5 54.688h3.75c0.518 0 0.938-0.419 0.938-0.938s-0.419-0.938-0.938-0.938H57.5c-0.518 0-0.938 0.419-0.938 0.938S56.982 54.688 57.5 54.688z" data-fill-palette-color="accent"></path></svg></g></svg></g></svg></g><defs></defs></svg><rect width="395.52" height="117.10764242826055" fill="none" stroke="none" visibility="hidden"></rect></g></svg></g></svg>