<svg xmlns="http://www.w3.org/2000/svg" version="1.1" xmlns:xlink="http://www.w3.org/1999/xlink" xmlns:svgjs="http://svgjs.dev/svgjs" width="128" height="128" viewBox="0 0 128 128"><g transform="matrix(0.6204819277108434,0,0,0.6204819277108434,24.437531836883572,12.760752631578946)"><svg viewBox="0 0 73 95" data-background-color="#0023ff" preserveAspectRatio="xMidYMid meet" height="166" width="128" xmlns="http://www.w3.org/2000/svg" xmlns:xlink="http://www.w3.org/1999/xlink"><g id="tight-bounds" transform="matrix(1,0,0,1,-0.13637824631031492,-0.24049999999999727)"><svg viewBox="0 0 73.27275649262062 95.481" height="95.481" width="73.27275649262062"><g><svg viewBox="0 0 73.27275649262062 95.481" height="95.481" width="73.27275649262062"><g><svg viewBox="0 0 73.27275649262062 95.481" height="95.481" width="73.27275649262062"><g id="textblocktransform"><svg viewBox="0 0 73.27275649262062 95.481" height="95.481" width="73.27275649262062" id="textblock"><g><svg viewBox="0 0 73.27275649262062 95.481" height="95.481" width="73.27275649262062"><g><svg viewBox="0 0 73.27275649262062 95.481" height="95.481" width="73.27275649262062"><g><svg xmlns="http://www.w3.org/2000/svg" xmlns:xlink="http://www.w3.org/1999/xlink" version="1.1" x="0" y="0" viewBox="19.060999999999996 9.684999999999999 61.876000000000005 80.63" enable-background="new 0 0 100 100" xml:space="preserve" height="95.481" width="73.27275649262062" class="icon-icon-0" data-fill-palette-color="accent" id="icon-0"><path fill="#00ffef" d="M79.062 14.373h1.875c0-2.585-2.102-4.688-4.688-4.688v0.002h-52.5c-2.585 0-4.688 2.102-4.688 4.688v71.252c0 2.585 2.102 4.688 4.688 4.688v-0.002h52.5c2.585 0 4.686-2.102 4.688-4.686l0 0V14.375h-1.875v71.25c0 1.551-1.262 2.812-2.812 2.812h-52.5v0.002c-1.551 0-2.812-1.262-2.812-2.812V14.375c0-1.551 1.262-2.812 2.812-2.812h52.5v-0.002C77.801 11.561 79.062 12.822 79.062 14.373z" data-fill-palette-color="accent"></path><path fill="#00ffef" d="M77.188 74.785V20c0-0.518-0.419-0.938-0.938-0.938h-52.5c-0.518 0-0.938 0.419-0.938 0.938v54.785c0 0.518 0.419 0.938 0.938 0.938h52.5C76.768 75.723 77.188 75.303 77.188 74.785zM75.312 73.848H24.688v-52.91h50.625V73.848z" data-fill-palette-color="accent"></path><path fill="#00ffef" d="M45.312 81.875c0 2.585 2.102 4.688 4.688 4.688s4.688-2.102 4.688-4.688S52.585 77.188 50 77.188 45.312 79.29 45.312 81.875zM52.812 81.875c0 1.551-1.262 2.812-2.812 2.812s-2.812-1.262-2.812-2.812 1.262-2.812 2.812-2.812S52.812 80.324 52.812 81.875z" data-fill-palette-color="accent"></path><path fill="#00ffef" d="M53.75 17.188c0.518 0 0.938-0.419 0.938-0.938s-0.419-0.938-0.938-0.938h-7.5c-0.518 0-0.938 0.419-0.938 0.938s0.419 0.938 0.938 0.938H53.75z" data-fill-palette-color="accent"></path><path fill="#00ffef" d="M50 65.938c3.618 0 6.562-2.944 6.562-6.562 0-0.518-0.419-0.938-0.938-0.938s-0.938 0.419-0.938 0.938c0 2.585-2.102 4.688-4.688 4.688s-4.688-2.102-4.688-4.688c0-0.518-0.419-0.938-0.938-0.938s-0.938 0.419-0.938 0.938C43.438 62.993 46.382 65.938 50 65.938z" data-fill-palette-color="accent"></path><path fill="#00ffef" d="M38.75 54.688h3.75c0.518 0 0.938-0.419 0.938-0.938s-0.419-0.938-0.938-0.938h-3.75c-0.518 0-0.938 0.419-0.938 0.938S38.232 54.688 38.75 54.688z" data-fill-palette-color="accent"></path><path fill="#00ffef" d="M57.5 54.688h3.75c0.518 0 0.938-0.419 0.938-0.938s-0.419-0.938-0.938-0.938H57.5c-0.518 0-0.938 0.419-0.938 0.938S56.982 54.688 57.5 54.688z" data-fill-palette-color="accent"></path></svg></g></svg></g></svg></g></svg></g></svg></g></svg></g><defs></defs></svg><rect width="73.27275649262062" height="95.481" fill="none" stroke="none" visibility="hidden"></rect></g></svg></g></svg>